<?xml version="1.0" encoding="utf-8"?>
<!-- Generator: Adobe Illustrator 27.4.1, SVG Export Plug-In . SVG Version: 6.00 Build 0)  -->
<svg version="1.1" id="Layer_1" xmlns="http://www.w3.org/2000/svg" xmlns:xlink="http://www.w3.org/1999/xlink" x="0px" y="0px"
	 viewBox="0 0 200 200" style="enable-background:new 0 0 200 200;" xml:space="preserve">
<style type="text/css">
	.st0{fill:#F2F2F3;}
	.st1{fill:#C6C7C9;}
	.st2{fill:#EDEDED;}
	.st3{fill:#BAA899;}
	.st4{fill:#998776;}
	.st5{fill:#746456;}
	.st6{fill:#FFFFFF;}
	.st7{fill:#DBDBDB;}
	.st8{fill:#01A0DE;}
	.st9{clip-path:url(#SVGID_00000103261161493689974960000017387331353971239593_);}
</style>
<g>
	<path class="st0" d="M68.4,61.1c-34.6,0-62.6-9.6-62.6-21.4s28-21.4,62.6-21.4S131,27.9,131,39.7C131,51.6,103,61.1,68.4,61.1z"/>
	<path class="st1" d="M131,154.1V39.3c0,12.6-28,21.8-62.6,21.8S5.8,51.5,5.8,39.3v114.8c0,15.1,28,27.3,62.6,27.3
		C103,181.5,131,169.2,131,154.1z"/>
	<g>
		<path class="st2" d="M19.8,53.2c0,0,17.1,8.7,56.3,7.8l118.2,0.2l0.2,121H74.1H74c-1.6,0.1-36.4,1.7-58.1-12.4
			c0,0-9.8-6.7-10-12.9L5.8,39.6C5.8,41.7,9.6,47,19.8,53.2z"/>
	</g>
	<g>
		<g>
			<g>
				<path class="st3" d="M18.5,39.4c0-9.2,22.4-16.6,50-16.5s49.8,7.6,49.8,16.8s-22.4,16.6-50,16.5C40.7,56.2,18.4,48.7,18.5,39.4z
					"/>
			</g>
		</g>
	</g>
	<g>
		<g>
			<g>
				<path class="st4" d="M21.1,39.5c0-8.4,21.3-15.2,47.4-15.1s47.3,7,47.2,15.4c0,8.4-21.3,15.2-47.4,15.1
					C42.2,54.8,21,47.9,21.1,39.5z"/>
			</g>
		</g>
		<g>
			<g>
				<path class="st5" d="M22.2,42.8c8.6,3.2,21.3,5.2,35.4,5.3c26.1,0.1,47.3-6.7,47.4-15.1c0-1.1-0.4-2.2-1.1-3.3
					c7.4,2.7,11.8,6.3,11.8,10.1c0,8.4-21.2,15.2-47.4,15.1C45.7,54.8,26.8,49.6,22.2,42.8z"/>
			</g>
		</g>
	</g>
</g>
<g>
	<g>
		<g>
			<g>
				<g>
					<path class="st6" d="M122.9,168.9c-26.9,0-48.7-21.8-48.7-48.5S96,71.8,122.9,71.8c26.9,0,48.7,21.8,48.7,48.5v1.2l-47.5,47.3
						H122.9z"/>
					<path class="st7" d="M122.9,72c26.8,0,48.6,21.6,48.6,48.4v1.1l-0.8,0.8l-45.8,45.6l-0.8,0.8h-1.1c-26.8,0-48.6-21.6-48.6-48.4
						S96.1,72,122.9,72 M122.9,71.7c-27,0-48.9,21.9-48.9,48.7s21.9,48.7,48.9,48.7h1.1h0.1l0.1-0.1l0.8-0.8l45.8-45.6l0.8-0.8
						l0.1-0.1v-0.1v-1.1C171.8,93.5,149.8,71.7,122.9,71.7L122.9,71.7z"/>
				</g>
				<path class="st8" d="M166.3,120.4l-43.4,43.2c-24,0-43.4-19.4-43.4-43.2s19.4-43.2,43.4-43.2C146.9,77.1,166.3,96.5,166.3,120.4
					z"/>
			</g>
		</g>
	</g>
	<g>
		<g>
			<g>
				<g>
					<path class="st6" d="M123.9,168.8c-5.3-7.2-1.9-28.7,12.3-40.5c7.2-6,16.4-9.6,24.6-9.6c4.1,0,7.7,0.9,10.7,2.6l0.2,0.1
						L124.1,169L123.9,168.8z"/>
					<path class="st7" d="M160.8,118.9c3.8,0,7.5,0.8,10.6,2.5l-47.3,47.2c-5.1-6.9-2-28.4,12.2-40.3
						C143.2,122.7,152.5,118.9,160.8,118.9 M160.8,118.6c-8.3,0-17.5,3.6-24.7,9.6c-14.2,11.8-17.7,33.5-12.3,40.8l0.2,0.3l0.3-0.3
						l47.3-47.2l0.3-0.3l-0.4-0.2C168.5,119.4,164.9,118.6,160.8,118.6L160.8,118.6z"/>
				</g>
			</g>
		</g>
	</g>
</g>
<g>
	<defs>
		<path id="SVGID_1_" d="M19.8,53.2c0,0,17.1,8.7,56.3,7.8l118.2,0.2l0.2,121H74.1H74c-1.6,0.1-36.4,1.7-58.1-12.4
			c0,0-9.8-6.7-10-12.9L5.8,39.6C5.8,41.7,9.6,47,19.8,53.2z"/>
	</defs>
	<clipPath id="SVGID_00000094580162539270419800000005682111194777490313_">
		<use xlink:href="#SVGID_1_"  style="overflow:visible;"/>
	</clipPath>
	<g style="clip-path:url(#SVGID_00000094580162539270419800000005682111194777490313_);">
		<g>
			<g>
				<g>
					<g>
						<path class="st6" d="M-0.5,154.2c-13,0-25.1-5-34.3-14.2l-0.9-0.9l0.1-67.1l0.9-0.9C-25.3,62-13.1,56.9,0,56.9
							c13,0,25.1,5,34.3,14.2c9.2,9.2,14.2,21.4,14.2,34.4c0,13-5.1,25.2-14.3,34.4C24.8,149.1,12.6,154.2-0.5,154.2
							C-0.5,154.2-0.5,154.2-0.5,154.2z"/>
						<path class="st7" d="M0,57.1c12.4,0,24.7,4.7,34.1,14.1c18.9,18.9,18.8,49.6-0.1,68.5C24.4,149.2,12,154-0.5,154
							c-12.4,0-24.7-4.7-34.1-14.1l-0.8-0.8l0-1.1l0.1-64.6l0-1.1l0.8-0.8C-24.9,61.8-12.5,57.1,0,57.1 M0,56.7
							c-13.1,0-25.4,5.1-34.7,14.4l-0.8,0.8l-0.1,0.1l0,0.1l0,1.1l-0.1,64.6l0,1.1l0,0.1l0.1,0.1l0.8,0.8
							c9.2,9.2,21.4,14.2,34.4,14.2c13.1,0,25.4-5.1,34.7-14.4c19.1-19.1,19.1-50,0.1-69C25.2,61.8,13,56.7,0,56.7L0,56.7z"/>
					</g>
					<path class="st8" d="M-31,136.2l0.1-61.3c17-17,44.4-17,61.3-0.1s16.8,44.3-0.1,61.3C13.4,153.1-14.1,153.1-31,136.2z"/>
				</g>
			</g>
		</g>
	</g>
</g>
</svg>
