<svg width="174" height="134" viewBox="0 0 174 134" fill="none" xmlns="http://www.w3.org/2000/svg">
<rect x="124" y="11" width="34" height="33" rx="2.7" stroke="black" stroke-width="2"/>
<path d="M124.482 53.4378L123.65 52.883C123.836 52.6049 124.148 52.4378 124.482 52.4378V53.4378ZM112.142 71.9435L112.974 72.4983C112.731 72.8631 112.278 73.0269 111.858 72.9022C111.437 72.7775 111.147 72.3935 111.142 71.955L112.142 71.9435ZM111.949 50.2302L112.93 50.0332C112.942 50.096 112.949 50.1598 112.949 50.2238L111.949 50.2302ZM171.62 5C171.62 3.34314 170.277 2 168.62 2V0C171.382 0 173.62 2.23857 173.62 5H171.62ZM171.62 49.4378V5H173.62V49.4378H171.62ZM168.62 52.4378C170.277 52.4378 171.62 51.0947 171.62 49.4378H173.62C173.62 52.1992 171.382 54.4378 168.62 54.4378V52.4378ZM124.482 52.4378H168.62V54.4378H124.482V52.4378ZM125.314 53.9926L112.974 72.4983L111.31 71.3887L123.65 52.883L125.314 53.9926ZM112.142 71.9435C111.142 71.955 111.142 71.955 111.142 71.9549C111.142 71.9548 111.142 71.9547 111.142 71.9545C111.142 71.9542 111.142 71.9537 111.142 71.953C111.142 71.9518 111.142 71.9498 111.142 71.9472C111.142 71.9421 111.142 71.9344 111.142 71.9242C111.141 71.9038 111.141 71.8734 111.141 71.8332C111.14 71.7529 111.138 71.6337 111.137 71.4781C111.133 71.1668 111.128 70.7097 111.122 70.1264C111.109 68.9598 111.092 67.2886 111.072 65.2695C111.033 61.2315 110.985 55.802 110.949 50.2365L112.949 50.2238C112.985 55.7863 113.033 61.2134 113.072 65.2501C113.092 67.2683 113.109 68.9389 113.122 70.1049C113.128 70.6879 113.133 71.1447 113.136 71.4557C113.138 71.6113 113.14 71.7303 113.14 71.8105C113.141 71.8506 113.141 71.881 113.142 71.9013C113.142 71.9115 113.142 71.9192 113.142 71.9243C113.142 71.9268 113.142 71.9287 113.142 71.93C113.142 71.9307 113.142 71.9312 113.142 71.9315C113.142 71.9316 113.142 71.9317 113.142 71.9318C113.142 71.9319 113.142 71.9319 112.142 71.9435ZM112.871 49.4378C112.871 49.6426 112.891 49.8415 112.93 50.0332L110.969 50.4272C110.905 50.1066 110.871 49.7756 110.871 49.4378H112.871ZM112.871 5V49.4378H110.871V5H112.871ZM115.871 2C114.214 2 112.871 3.34315 112.871 5H110.871C110.871 2.23858 113.11 0 115.871 0V2ZM168.62 2H115.871V0H168.62V2Z" fill="black"/>
<path d="M111.5 52H14V123H119V62" stroke="black" stroke-width="2" stroke-linecap="round" stroke-linejoin="round"/>
<path d="M111.378 39H4V53M132 53.5V133H4V74.5" stroke="black" stroke-width="2" stroke-linecap="round" stroke-linejoin="round"/>
<circle cx="95" cy="73" r="12" stroke="black" stroke-width="2" stroke-linecap="round" stroke-linejoin="round"/>
<path d="M14 123L39.8904 76L63.6233 102.657L80.8836 91.4328L119 123" stroke="black" stroke-width="2" stroke-linecap="round" stroke-linejoin="round"/>
<path d="M133 28.5C133.4 29.3 136.833 33.5 138.5 35.5L152.5 19" stroke="black" stroke-width="2" stroke-linecap="round"/>
<circle cx="4.13283" cy="64.1328" r="4.13283" fill="#F2A900"/>
</svg>
