<svg width="138" height="133" viewBox="0 0 138 133" fill="none" xmlns="http://www.w3.org/2000/svg">
<path d="M29.7858 25.3V33H28.0258V28.523L26.0348 31.79H25.8368L23.8458 28.523V33H22.0858V25.3H23.8458L25.9358 28.721L28.0258 25.3H29.7858ZM35.0472 27.5H36.6972V33H35.0472V32.483C34.6842 32.901 34.1452 33.154 33.4082 33.154C31.9672 33.154 30.7792 31.889 30.7792 30.25C30.7792 28.611 31.9672 27.346 33.4082 27.346C34.1452 27.346 34.6842 27.599 35.0472 28.017V27.5ZM33.7382 31.592C34.4972 31.592 35.0472 31.075 35.0472 30.25C35.0472 29.425 34.4972 28.908 33.7382 28.908C32.9792 28.908 32.4292 29.425 32.4292 30.25C32.4292 31.075 32.9792 31.592 33.7382 31.592ZM43.1877 33H41.3177L39.5577 30.569V33H37.9077V25.3H39.5577V29.909L41.2077 27.5H43.1327L41.1307 30.25L43.1877 33ZM44.9354 30.91C45.1444 31.482 45.6504 31.68 46.2554 31.68C46.7064 31.68 47.0914 31.504 47.3114 31.262L48.6314 32.021C48.0924 32.769 47.2784 33.154 46.2334 33.154C44.3524 33.154 43.1864 31.889 43.1864 30.25C43.1864 28.611 44.3744 27.346 46.1124 27.346C47.7184 27.346 48.9064 28.589 48.9064 30.25C48.9064 30.481 48.8844 30.701 48.8404 30.91H44.9354ZM44.9024 29.678H47.2674C47.0914 29.04 46.5964 28.809 46.1014 28.809C45.4744 28.809 45.0564 29.117 44.9024 29.678ZM52.5483 33.121C51.1073 33.121 50.0843 32.395 49.7323 31.306L50.2383 31.009C50.5023 31.933 51.2833 32.56 52.5483 32.56C53.8353 32.56 54.4843 31.9 54.4843 31.02C54.4843 30.096 53.6703 29.744 52.4933 29.37C51.2063 28.952 50.0513 28.589 50.0513 27.247C50.0513 25.982 51.0743 25.179 52.3833 25.179C53.6483 25.179 54.4843 25.905 54.8583 26.796L54.3633 27.071C54.0773 26.378 53.4833 25.74 52.3833 25.74C51.3163 25.74 50.6453 26.367 50.6453 27.225C50.6453 28.149 51.4263 28.435 52.5263 28.798C53.8903 29.249 55.0783 29.678 55.0783 31.009C55.0783 32.285 54.0773 33.121 52.5483 33.121ZM59.0556 28.039H57.4166V31.614C57.4166 32.582 57.9336 32.604 59.0556 32.505V33C57.6146 33.22 56.8556 32.868 56.8556 31.614V28.039H55.6456V27.5H56.8556V26.125L57.4166 25.96V27.5H59.0556V28.039ZM60.6503 26.169C60.4083 26.169 60.2103 25.971 60.2103 25.729C60.2103 25.498 60.4083 25.3 60.6503 25.3C60.8923 25.3 61.0903 25.498 61.0903 25.729C61.0903 25.971 60.8923 26.169 60.6503 26.169ZM60.3753 33V27.5H60.9253V33H60.3753ZM65.1394 33.121C63.4784 33.121 62.2464 31.878 62.2464 30.25C62.2464 28.622 63.4784 27.379 65.1394 27.379C66.2174 27.379 67.1414 27.929 67.5374 28.787L67.0864 29.051C66.7674 28.358 66.0194 27.907 65.1394 27.907C63.8084 27.907 62.8074 28.941 62.8074 30.25C62.8074 31.559 63.8084 32.593 65.1394 32.593C66.0304 32.593 66.7564 32.131 67.1194 31.449L67.5814 31.724C67.1414 32.571 66.2174 33.121 65.1394 33.121ZM72.9995 33H72.2515L69.3365 30.294V33H68.7865V25.3H69.3365V29.997L72.1195 27.5H72.8895L69.9305 30.14L72.9995 33ZM76.031 27.379C77.703 27.379 78.748 28.765 78.748 30.272C78.748 30.36 78.737 30.448 78.737 30.536H73.754C73.886 31.779 74.832 32.593 76.086 32.593C76.988 32.593 77.67 32.175 77.989 31.592L78.473 31.878C78.022 32.626 77.164 33.121 76.075 33.121C74.381 33.121 73.182 31.911 73.182 30.25C73.182 28.633 74.348 27.379 76.031 27.379ZM76.031 27.907C74.777 27.907 73.864 28.776 73.754 29.997H78.176C78.055 28.655 77.109 27.907 76.031 27.907ZM80.5835 28.578C80.9575 27.709 81.6725 27.423 82.4205 27.423V27.951C81.4745 27.951 80.5835 28.534 80.5835 29.942V33H80.0335V27.5H80.5835V28.578ZM83.6946 28.941C83.6946 30.415 87.0276 29.546 87.0276 31.559C87.0276 32.461 86.2356 33.121 85.0586 33.121C83.9586 33.121 83.2326 32.604 82.9686 31.9L83.4416 31.625C83.6396 32.219 84.2336 32.593 85.0586 32.593C85.8286 32.593 86.4776 32.252 86.4776 31.559C86.4776 30.063 83.1446 30.921 83.1446 28.941C83.1446 28.072 83.8926 27.379 85.0146 27.379C85.9056 27.379 86.5876 27.808 86.8846 28.479L86.4226 28.743C86.1916 28.171 85.6196 27.907 85.0146 27.907C84.2996 27.907 83.6946 28.281 83.6946 28.941ZM88.5813 33.11C88.2953 33.11 88.0863 32.89 88.0863 32.615C88.0863 32.34 88.2953 32.12 88.5813 32.12C88.8563 32.12 89.0763 32.34 89.0763 32.615C89.0763 32.89 88.8563 33.11 88.5813 33.11ZM92.6717 33.121C91.0107 33.121 89.7787 31.878 89.7787 30.25C89.7787 28.622 91.0107 27.379 92.6717 27.379C93.7497 27.379 94.6737 27.929 95.0697 28.787L94.6187 29.051C94.2997 28.358 93.5517 27.907 92.6717 27.907C91.3407 27.907 90.3397 28.941 90.3397 30.25C90.3397 31.559 91.3407 32.593 92.6717 32.593C93.5627 32.593 94.2887 32.131 94.6517 31.449L95.1137 31.724C94.6737 32.571 93.7497 33.121 92.6717 33.121ZM98.784 33.121C97.178 33.121 95.891 31.878 95.891 30.25C95.891 28.622 97.178 27.379 98.784 27.379C100.379 27.379 101.666 28.622 101.666 30.25C101.666 31.878 100.379 33.121 98.784 33.121ZM98.784 32.593C100.093 32.593 101.105 31.559 101.105 30.25C101.105 28.941 100.093 27.907 98.784 27.907C97.475 27.907 96.452 28.941 96.452 30.25C96.452 31.559 97.475 32.593 98.784 32.593ZM108.864 27.379C110.03 27.379 110.866 28.138 110.866 29.513V33H110.316V29.513C110.316 28.468 109.711 27.907 108.853 27.907C107.929 27.907 107.203 28.523 107.203 29.931V33H106.653V29.513C106.653 28.468 106.092 27.907 105.245 27.907C104.343 27.907 103.54 28.523 103.54 29.931V33H102.99V27.5H103.54V28.446C103.947 27.687 104.607 27.379 105.311 27.379C106.114 27.379 106.741 27.775 107.027 28.501C107.423 27.731 108.127 27.379 108.864 27.379Z" fill="black"/>
<rect x="40" y="102" width="48" height="30" stroke="black" stroke-width="2" stroke-linejoin="round"/>
<path d="M8 132H124" stroke="black" stroke-width="2" stroke-linecap="round"/>
<path d="M11 41L122 41" stroke="black" stroke-width="2"/>
<path d="M75 69.3984V73.6984C75 75.1896 76.2088 76.3984 77.7 76.3984H98.3C99.7912 76.3984 101 75.1896 101 73.6984V69.3984" stroke="black" stroke-width="2" stroke-linecap="round"/>
<line x1="87.9522" y1="70.8838" x2="87.9524" y2="57.9928" stroke="black" stroke-width="2" stroke-linecap="round"/>
<path d="M83.6197 60.5851L87.8893 56.0627L92.5517 60.4628" stroke="black" stroke-width="2" stroke-linecap="round" stroke-linejoin="round"/>
<path d="M133 17.3382V3.7C133 2.20883 131.791 1 130.3 1H3.7C2.20883 1 1 2.20883 1 3.69999V99.3C1 100.791 2.20883 102 3.7 102H130.3C131.791 102 133 100.791 133 99.3V38.875" stroke="black" stroke-width="2" stroke-linecap="round"/>
<rect x="11" y="14" width="112" height="78" rx="1.7" stroke="black" stroke-width="2"/>
<rect x="24" y="52" width="32" height="5" rx="1" stroke="black" stroke-width="2" stroke-linejoin="round"/>
<rect x="24" y="63" width="32" height="5" rx="1" stroke="black" stroke-width="2" stroke-linejoin="round"/>
<rect x="24" y="74" width="32" height="5" rx="1" stroke="black" stroke-width="2" stroke-linejoin="round"/>
<rect x="70" y="50" width="37" height="32" rx="1.7" stroke="black" stroke-width="2"/>
<circle cx="133.133" cy="28.1328" r="4.13283" fill="#EE2737"/>
</svg>
