<svg width="117" height="144" viewBox="0 0 117 144" fill="none" xmlns="http://www.w3.org/2000/svg">
<line x1="87.3258" y1="16.6524" x2="88.2126" y2="9.02581" stroke="black" stroke-width="2" stroke-linecap="round"/>
<line x1="94.6584" y1="18.2105" x2="99.9898" y2="12.6853" stroke="black" stroke-width="2" stroke-linecap="round"/>
<line x1="1" y1="-1" x2="8.678" y2="-1" transform="matrix(-0.476154 -0.879362 -0.879362 0.476154 79.7676 17.7697)" stroke="black" stroke-width="2" stroke-linecap="round"/>
<path d="M28.8896 66.61L16.2122 31.6706L33.2036 25.3566L48.4418 66.61" stroke="black" stroke-width="2" stroke-linecap="round" stroke-linejoin="round"/>
<line x1="33.759" y1="55.348" x2="41.7392" y2="52.3825" stroke="black" stroke-width="2" stroke-linecap="round" stroke-linejoin="round"/>
<line x1="28.8347" y1="42.0949" x2="36.8149" y2="39.1295" stroke="black" stroke-width="2" stroke-linecap="round" stroke-linejoin="round"/>
<line x1="39.2795" y1="60.8387" x2="44.2013" y2="59.0098" stroke="black" stroke-width="2" stroke-linecap="round" stroke-linejoin="round"/>
<line x1="34.3556" y1="47.5845" x2="39.2775" y2="45.7556" stroke="black" stroke-width="2" stroke-linecap="round" stroke-linejoin="round"/>
<line x1="29.4299" y1="34.3316" x2="34.3517" y2="32.5027" stroke="black" stroke-width="2" stroke-linecap="round" stroke-linejoin="round"/>
<path d="M102.745 43.1657C102.478 45.4571 101.839 47.6135 100.897 49.5802C100.23 50.9734 99.41 52.2714 98.4626 53.4547M65.266 49.5802C64.8798 48.7657 64.547 47.9222 64.2715 47.0548M69.2685 26.6022C73.3965 22.4977 79.2486 20.2468 85.4298 20.9683C89.7647 21.4742 93.6054 23.3654 96.5726 26.1556" stroke="black" stroke-width="2" stroke-linecap="round"/>
<path d="M65.1504 49.4197C66.908 53.3112 72.8979 59.4891 72.5695 63.5767C72.5197 64.1967 72.5695 66.1777 72.5695 67.0371" stroke="black" stroke-width="2" stroke-linecap="round"/>
<path d="M98.627 53.1791C96.0168 56.5923 88.7597 61.2709 88.1339 65.3591C88.0469 65.9273 87.7069 66.6073 87.7069 67.4667" stroke="black" stroke-width="2" stroke-linecap="round"/>
<path d="M77.8958 65.4017L80.4086 43.8719C80.4418 42.7452 80.1009 40.4445 78.4716 40.2543C76.435 40.0166 75.9306 40.5476 75.7099 42.4387C75.4892 44.3299 75.4988 45.5106 77.8264 45.7823C79.6884 45.9996 81.6087 46.2237 82.336 46.3086" stroke="black" stroke-width="2" stroke-linecap="round"/>
<path d="M82.2468 65.8094L84.7596 44.2795C84.9867 43.1755 85.8484 41.0151 87.4777 41.2053C89.5143 41.443 89.8828 42.0758 89.662 43.9669C89.4413 45.8581 89.16 47.0049 86.8325 46.7332C84.9704 46.5159 83.0502 46.2918 82.3228 46.2069" stroke="black" stroke-width="2" stroke-linecap="round"/>
<path d="M55.4851 66.3914L64.0968 16.2306L50.127 13.8323L44.9767 43.831" stroke="black" stroke-width="2" stroke-linecap="round" stroke-linejoin="round"/>
<path d="M57.439 15.371L50.0812 58.2281" stroke="black" stroke-width="2" stroke-linecap="round"/>
<path d="M64.0969 16.2314L59.6238 1.22282L50.1271 13.833" stroke="black" stroke-width="2" stroke-linecap="round" stroke-linejoin="round"/>
<circle cx="101.5" cy="33.5" r="4.5" fill="#01A0DE"/>
<path d="M116 98L105 96" stroke="black" stroke-width="2" stroke-linecap="round"/>
<path fill-rule="evenodd" clip-rule="evenodd" d="M58.4258 108.919C57.9415 109.014 57.4438 109.019 56.9579 108.933L1.25683 99.054C0.71303 98.9575 0.19401 99.3202 0.0975663 99.864C0.0857926 99.9304 0.0808609 99.9964 0.0822657 100.061V132.425C0.0717567 132.909 0.415507 133.343 0.907577 133.43L57.5277 143.471C57.6491 143.493 57.7736 143.492 57.8946 143.468L116.11 132.057C116.593 131.963 116.927 131.534 116.917 131.058V98.6897C116.919 98.6197 116.913 98.5485 116.899 98.477C116.792 97.935 116.267 97.5818 115.725 97.688L58.4258 108.919ZM2.08227 130.769C2.08227 131.254 2.43017 131.669 2.90764 131.753L55.5169 141.084C56.1295 141.192 56.6915 140.721 56.6915 140.099V111C56.6915 110.952 56.6564 110.91 56.6087 110.902L3.25689 101.44C2.6443 101.331 2.08227 101.802 2.08227 102.425V130.769ZM114.917 129.43C114.917 129.908 114.579 130.319 114.11 130.411L59.8839 141.04C59.2661 141.161 58.6915 140.688 58.6915 140.059V111.025C58.6915 110.955 58.7418 110.895 58.8105 110.882L113.725 100.118C114.343 99.997 114.917 100.47 114.917 101.099V129.43Z" fill="black"/>
<path d="M38 133.623V128.227C38 127.593 38.5813 127.12 39.2016 127.247L51.2016 129.717C51.6664 129.813 52 130.222 52 130.697V135.802C52 136.426 51.4351 136.897 50.8213 136.786L38.8213 134.607C38.3457 134.52 38 134.106 38 133.623Z" stroke="black" stroke-width="2" stroke-linecap="round"/>
<path d="M44 98.1341V94.2313C44 93.5965 44.5838 93.1223 45.2051 93.2525L54.2051 95.1385C54.6683 95.2356 55 95.644 55 96.1173V99.7981C55 100.423 54.4329 100.895 53.8182 100.781L44.8182 99.1174C44.3441 99.0297 44 98.6162 44 98.1341Z" stroke="black" stroke-width="2" stroke-linecap="round"/>
<path d="M15 66L27.449 63.5M107 64.8889L90.3216 61.5556M45.5287 59.3333L49.7827 58.5M57.2273 56.8333L60.2713 56.2204C60.9923 56.0753 61.7365 56.0909 62.4507 56.2663L70.4152 58.2222" stroke="black" stroke-width="2" stroke-linecap="round"/>
<path fill-rule="evenodd" clip-rule="evenodd" d="M61.3767 74.5217C60.814 74.6512 60.2299 74.6573 59.6646 74.5396L15.0656 65.2549C14.5249 65.1423 13.9953 65.4894 13.8828 66.0301C13.7702 66.5708 14.1173 67.1004 14.6579 67.2129L59.2569 76.4976C59.4103 76.5296 59.5243 76.6622 59.5243 76.8189V103.965C59.5243 104.599 58.9414 105.073 58.3205 104.944L16.6577 96.2706C16.194 96.174 15.8616 95.7653 15.8616 95.2916L15.8613 77.841C15.8613 77.2887 15.4136 76.841 14.8613 76.841C14.309 76.841 13.8613 77.2887 13.8613 77.841L13.8616 96.9189C13.8616 96.9189 13.8616 96.9189 13.8616 96.9189C13.8616 96.9189 13.8616 96.9189 13.8616 96.9189C13.8615 97.3828 14.1859 97.7989 14.658 97.8972L60.3295 107.405C60.4708 107.435 60.6169 107.433 60.7576 107.401L107.716 96.5961C108.182 96.4889 108.496 96.0724 108.492 95.6132L108.914 76.7809C108.926 76.2287 108.488 75.7711 107.936 75.7587C107.384 75.7464 106.927 76.1839 106.914 76.7361L106.526 94.0438C106.516 94.5013 106.197 94.8934 105.751 94.996L62.7485 104.89C62.122 105.034 61.5243 104.559 61.5243 103.916V76.8391C61.5243 76.6615 61.6521 76.5106 61.8252 76.4708L107.716 65.9119C108.254 65.7881 108.59 65.2513 108.466 64.7131C108.342 64.1749 107.805 63.839 107.267 63.9628L61.3767 74.5217Z" fill="black"/>
<path d="M68.2458 86.5118L61.3984 76.841" stroke="black" stroke-width="2" stroke-linecap="round"/>
<path d="M114.143 74.6069L107.296 64.936" stroke="black" stroke-width="2" stroke-linecap="round"/>
<path d="M68.4418 86.4622L114.234 74.6761" stroke="black" stroke-width="2" stroke-linecap="round"/>
<path d="M52.6661 86.5811L59.2339 77.3641" stroke="black" stroke-width="2" stroke-linecap="round"/>
<path d="M83.5845 101.192L94.1602 103.321" stroke="black" stroke-width="2" stroke-linecap="round"/>
<path d="M74.3853 103.352L84.4053 104.939" stroke="black" stroke-width="2" stroke-linecap="round"/>
<path d="M5.12014 127.708L15.1401 129.295" stroke="black" stroke-width="2" stroke-linecap="round"/>
<path d="M5.12014 123.379L15.1401 124.966" stroke="black" stroke-width="2" stroke-linecap="round"/>
<path d="M20.272 93.0755L30.292 94.6625" stroke="black" stroke-width="2" stroke-linecap="round"/>
<path d="M20.272 88.7464L30.292 90.3334" stroke="black" stroke-width="2" stroke-linecap="round"/>
<path d="M8.64214 75.2353L15.21 66.0183" stroke="black" stroke-width="2" stroke-linecap="round"/>
<path d="M52.4778 86.5343L8.55495 75.3013" stroke="black" stroke-width="2" stroke-linecap="round"/>
<path d="M14.9315 96.5964L1.26123 99.835" stroke="black" stroke-width="2" stroke-linecap="round"/>
<path d="M84.489 105.274L84.3371 119.139C84.3284 119.929 85.1961 120.417 85.8664 119.999L89.0024 118.042C89.2718 117.874 89.605 117.844 89.9002 117.961L93.6971 119.465C94.3492 119.723 95.0577 119.248 95.0654 118.546L95.2274 103.768" stroke="black" stroke-width="2" stroke-linecap="round"/>
</svg>
