<svg width="186" height="133" viewBox="0 0 186 133" fill="none" xmlns="http://www.w3.org/2000/svg">
<rect x="71" y="91" width="38" height="21" rx="2.7" stroke="black" stroke-width="2"/>
<path d="M93 132H182.3C183.791 132 185 130.791 185 129.3V128.7C185 127.209 183.791 126 182.3 126H100.667" stroke="black" stroke-width="2"/>
<path d="M126 101.443V62C126 61.4477 125.552 61 125 61H92.8846H63.5M95.8132 132H45C44.4477 132 44 131.552 44 131V123M44 107V81.2344" stroke="black" stroke-width="2" stroke-linecap="round"/>
<path d="M65 49.5C65 68.0439 50.6317 83 33 83C15.3683 83 1 68.0439 1 49.5C1 30.9561 15.3683 16 33 16C50.6317 16 65 30.9561 65 49.5Z" stroke="black" stroke-width="2"/>
<path d="M59 50.5C59 52.3858 58.8067 54.2256 58.4393 56C57.926 58.4788 57.0727 60.8298 55.9315 63C53.1838 68.2256 48.767 72.4029 43.4074 74.7917C40.2207 76.212 36.7006 77 33 77C18.6406 77 7 65.1355 7 50.5C7 35.8645 18.6406 24 33 24C47.3594 24 59 35.8645 59 50.5Z" stroke="black" stroke-width="2"/>
<path d="M42 51C42 56.0195 38.1467 60 33.5 60C28.8533 60 25 56.0195 25 51C25 45.9805 28.8533 42 33.5 42C38.1467 42 42 45.9805 42 51Z" stroke="black" stroke-width="2"/>
<circle cx="71" cy="10" r="9" stroke="black" stroke-width="2"/>
<circle cx="70.5" cy="9.5" r="4.5" stroke="black" stroke-width="2"/>
<path d="M126 101C131.523 101 136 96.5228 136 91C136 85.4772 131.523 81 126 81" stroke="black" stroke-width="2"/>
<path d="M125.5 70C131.851 70 137 64.8513 137 58.5C137 52.1487 131.851 47 125.5 47C119.149 47 114 52.1487 114 58.5C114 64.1106 114 59.9839 114 61.0968" stroke="black" stroke-width="2"/>
<path d="M33.7432 51.8672L55 74" stroke="black" stroke-width="2" stroke-linecap="round"/>
<line x1="64.9244" y1="47.0818" x2="62.0818" y2="11.0756" stroke="black" stroke-width="2" stroke-linecap="round"/>
<path d="M85 95L85 105" stroke="black" stroke-width="2" stroke-linecap="round"/>
<path d="M125.729 101.316L95.1945 131.85" stroke="black" stroke-width="2" stroke-linecap="round"/>
<line x1="90" y1="108" x2="91" y2="108" stroke="black" stroke-width="2" stroke-linecap="round"/>
<line x1="88.0098" y1="105.972" x2="89.0721" y2="104.909" stroke="black" stroke-width="2" stroke-linecap="round"/>
<line x1="79" y1="108" x2="81" y2="108" stroke="black" stroke-width="2" stroke-linecap="round"/>
<line x1="81.4142" y1="105" x2="82.4766" y2="106.062" stroke="black" stroke-width="2" stroke-linecap="round"/>
<path d="M149.851 93.9835C150.229 93.5811 150.862 93.5616 151.265 93.9399C151.667 94.3182 151.687 94.9511 151.308 95.3535L149.851 93.9835ZM124.216 101.364C125.549 100.019 127.212 100.107 128.757 100.418C129.526 100.574 130.392 100.813 131.239 101.023C132.11 101.239 133.027 101.442 134.011 101.562C135.962 101.8 138.197 101.713 140.784 100.688C143.383 99.6584 146.395 97.6595 149.851 93.9835L151.308 95.3535C147.706 99.185 144.459 101.383 141.52 102.547C138.57 103.716 135.99 103.818 133.769 103.547C132.667 103.413 131.659 103.188 130.757 102.964C129.831 102.734 129.074 102.523 128.362 102.379C126.945 102.093 126.212 102.192 125.637 102.772L124.216 101.364Z" fill="black"/>
<path d="M131.766 48.6893L75.4341 2.07964" stroke="black" stroke-width="2" stroke-linecap="round"/>
<circle cx="44.1328" cy="115.133" r="4.13283" fill="#A4D233"/>
</svg>
