<svg width="202" height="218" viewBox="0 0 202 218" fill="none" xmlns="http://www.w3.org/2000/svg">
<g opacity="0.5">
<mask id="path-1-outside-1_34_249" maskUnits="userSpaceOnUse" x="-8.07829" y="-13.7367" width="216.912" height="239.607" fill="black">
<rect fill="white" x="-8.07829" y="-13.7367" width="216.912" height="239.607"/>
<path d="M168.964 134.756C170.793 129.991 172.379 124.99 173.69 119.768C179.547 96.4597 177.548 81.2304 172.678 73.8307C171.02 71.3127 169.041 69.7272 166.942 69.0598C164.876 68.4033 162.668 68.6407 160.524 69.7601C155.781 72.2387 151.367 78.9607 149.318 89.8467C146.652 104.014 151.534 119.029 159.317 127.862C162.024 130.934 165.079 133.249 168.278 134.504C168.506 134.593 168.735 134.677 168.964 134.756ZM97.4887 195.895C86.9906 136.245 66.7352 104.027 47.6017 90.736C38.2777 84.2591 29.2435 82.3062 21.7736 83.8763C14.3311 85.4428 8.42 90.5233 5.32353 98.1195C-0.000881209 111.179 2.96583 131.631 20.6025 154.525C26.8298 162.609 34.0808 170.035 42.0512 176.299C54.4663 186.057 68.6267 193.005 83.3845 195.244C88.0381 195.95 92.7512 196.187 97.4885 195.897L97.4887 195.895ZM101.503 215.596C101.534 215.853 101.33 216.08 101.046 216.104C100.761 216.127 100.503 215.939 100.471 215.684C99.6384 209.114 98.6921 202.831 97.6496 196.822C92.8078 197.122 87.9892 196.883 83.2335 196.161C68.2738 193.891 53.9337 186.862 41.3756 176.991C33.3358 170.672 26.0271 163.187 19.7514 155.04C1.89661 131.865 -1.07525 111.09 4.3498 97.7834C7.56713 89.8897 13.737 84.6065 21.5212 82.9676C29.2823 81.3347 38.6271 83.3372 48.2269 90.0038C67.5406 103.419 87.9769 135.855 98.5257 195.822C108.456 195.054 118.48 191.956 128.273 185.978C134.206 182.358 140.054 177.679 145.743 171.828C152.178 165.208 157.914 157.375 162.706 148.45C164.883 144.396 166.864 140.118 168.628 135.627C168.379 135.542 168.131 135.45 167.883 135.353C164.521 134.034 161.329 131.62 158.513 128.425C150.571 119.409 145.582 104.1 148.299 89.6717C150.403 78.4945 155.014 71.5503 159.993 68.9475C162.404 67.6866 164.909 67.4271 167.275 68.1767C169.608 68.9172 171.783 70.6451 173.574 73.3642C178.56 80.9373 180.633 96.417 174.71 119.985C173.392 125.235 171.799 130.263 169.961 135.054C172.603 135.767 175.321 135.744 178.006 134.814C183.803 132.808 189.486 126.613 194 114.602C198.244 103.298 202.615 79.5456 196.88 53.5884C193.075 36.3699 184.818 18.1826 169.12 2.02734C168.931 1.83125 168.95 1.53883 169.165 1.37255C169.38 1.20627 169.706 1.22916 169.896 1.42525C185.735 17.7219 194.063 36.0646 197.9 53.427C203.675 79.5691 199.264 103.513 194.975 114.918C190.353 127.216 184.449 133.588 178.386 135.688C175.449 136.703 172.484 136.726 169.613 135.936C167.837 140.466 165.839 144.781 163.643 148.869C158.814 157.861 153.026 165.763 146.527 172.449C140.776 178.364 134.865 183.092 128.863 186.756C118.932 192.818 108.762 195.966 98.684 196.753C99.7245 202.759 100.669 209.036 101.503 215.6L101.503 215.596Z"/>
</mask>
<path d="M168.964 134.756C170.793 129.991 172.379 124.99 173.69 119.768C179.547 96.4597 177.548 81.2304 172.678 73.8307C171.02 71.3127 169.041 69.7272 166.942 69.0598C164.876 68.4033 162.668 68.6407 160.524 69.7601C155.781 72.2387 151.367 78.9607 149.318 89.8467C146.652 104.014 151.534 119.029 159.317 127.862C162.024 130.934 165.079 133.249 168.278 134.504C168.506 134.593 168.735 134.677 168.964 134.756ZM97.4887 195.895C86.9906 136.245 66.7352 104.027 47.6017 90.736C38.2777 84.2591 29.2435 82.3062 21.7736 83.8763C14.3311 85.4428 8.42 90.5233 5.32353 98.1195C-0.000881209 111.179 2.96583 131.631 20.6025 154.525C26.8298 162.609 34.0808 170.035 42.0512 176.299C54.4663 186.057 68.6267 193.005 83.3845 195.244C88.0381 195.95 92.7512 196.187 97.4885 195.897L97.4887 195.895ZM101.503 215.596C101.534 215.853 101.33 216.08 101.046 216.104C100.761 216.127 100.503 215.939 100.471 215.684C99.6384 209.114 98.6921 202.831 97.6496 196.822C92.8078 197.122 87.9892 196.883 83.2335 196.161C68.2738 193.891 53.9337 186.862 41.3756 176.991C33.3358 170.672 26.0271 163.187 19.7514 155.04C1.89661 131.865 -1.07525 111.09 4.3498 97.7834C7.56713 89.8897 13.737 84.6065 21.5212 82.9676C29.2823 81.3347 38.6271 83.3372 48.2269 90.0038C67.5406 103.419 87.9769 135.855 98.5257 195.822C108.456 195.054 118.48 191.956 128.273 185.978C134.206 182.358 140.054 177.679 145.743 171.828C152.178 165.208 157.914 157.375 162.706 148.45C164.883 144.396 166.864 140.118 168.628 135.627C168.379 135.542 168.131 135.45 167.883 135.353C164.521 134.034 161.329 131.62 158.513 128.425C150.571 119.409 145.582 104.1 148.299 89.6717C150.403 78.4945 155.014 71.5503 159.993 68.9475C162.404 67.6866 164.909 67.4271 167.275 68.1767C169.608 68.9172 171.783 70.6451 173.574 73.3642C178.56 80.9373 180.633 96.417 174.71 119.985C173.392 125.235 171.799 130.263 169.961 135.054C172.603 135.767 175.321 135.744 178.006 134.814C183.803 132.808 189.486 126.613 194 114.602C198.244 103.298 202.615 79.5456 196.88 53.5884C193.075 36.3699 184.818 18.1826 169.12 2.02734C168.931 1.83125 168.95 1.53883 169.165 1.37255C169.38 1.20627 169.706 1.22916 169.896 1.42525C185.735 17.7219 194.063 36.0646 197.9 53.427C203.675 79.5691 199.264 103.513 194.975 114.918C190.353 127.216 184.449 133.588 178.386 135.688C175.449 136.703 172.484 136.726 169.613 135.936C167.837 140.466 165.839 144.781 163.643 148.869C158.814 157.861 153.026 165.763 146.527 172.449C140.776 178.364 134.865 183.092 128.863 186.756C118.932 192.818 108.762 195.966 98.684 196.753C99.7245 202.759 100.669 209.036 101.503 215.6L101.503 215.596Z" fill="#01A0DE"/>
<path d="M173.69 119.768L172.72 119.524L172.72 119.525L173.69 119.768ZM172.678 73.8307L173.513 73.2809L173.513 73.2808L172.678 73.8307ZM166.942 69.0598L167.245 68.1068L167.245 68.1067L166.942 69.0598ZM160.524 69.7601L160.061 68.8736L160.06 68.8738L160.524 69.7601ZM149.318 89.8467L148.335 89.6617L148.335 89.6617L149.318 89.8467ZM159.317 127.862L160.067 127.201L160.067 127.201L159.317 127.862ZM168.278 134.504L167.913 135.435L167.915 135.436L168.278 134.504ZM97.4887 195.895L98.4848 195.984L98.4964 195.852L98.4735 195.722L97.4887 195.895ZM47.6017 90.736L47.0312 91.5573L47.6017 90.736ZM21.7736 83.8763L21.568 82.8977L21.5677 82.8978L21.7736 83.8763ZM5.32353 98.1195L6.24953 98.497L6.24955 98.4969L5.32353 98.1195ZM20.6025 154.525L21.3947 153.915L21.3947 153.915L20.6025 154.525ZM42.0512 176.299L42.6691 175.513L42.6691 175.513L42.0512 176.299ZM83.3845 195.244L83.5346 194.255L83.5345 194.255L83.3845 195.244ZM97.4885 195.897L97.5495 196.895L98.4086 196.843L98.4846 195.986L97.4885 195.897ZM101.503 215.596L102.496 215.475L100.507 215.508L101.503 215.596ZM101.046 216.104L101.127 217.1L101.128 217.1L101.046 216.104ZM100.471 215.684L101.464 215.561L101.463 215.558L100.471 215.684ZM97.6496 196.822L98.6348 196.651L98.4817 195.769L97.5877 195.824L97.6496 196.822ZM83.2335 196.161L83.0834 197.15L83.0835 197.15L83.2335 196.161ZM41.3756 176.991L41.9936 176.204L41.9936 176.204L41.3756 176.991ZM19.7514 155.04L20.5436 154.43L20.5436 154.43L19.7514 155.04ZM4.3498 97.7834L5.27579 98.1609L5.27583 98.1608L4.3498 97.7834ZM21.5212 82.9676L21.3153 81.989L21.3151 81.989L21.5212 82.9676ZM48.2269 90.0038L48.7974 89.1825L48.7973 89.1824L48.2269 90.0038ZM98.5257 195.822L97.5408 195.995L97.698 196.889L98.6028 196.819L98.5257 195.822ZM128.273 185.978L127.752 185.125L127.752 185.125L128.273 185.978ZM145.743 171.828L146.46 172.525L146.46 172.525L145.743 171.828ZM162.706 148.45L161.825 147.977L161.825 147.977L162.706 148.45ZM168.628 135.627L169.559 135.992L169.942 135.017L168.95 134.68L168.628 135.627ZM167.883 135.353L167.518 136.284L167.52 136.285L167.883 135.353ZM158.513 128.425L157.763 129.086L157.763 129.086L158.513 128.425ZM148.299 89.6717L149.281 89.8567L148.299 89.6717ZM159.993 68.9475L160.456 69.8337L160.456 69.8337L159.993 68.9475ZM167.275 68.1767L167.577 67.2235L167.577 67.2234L167.275 68.1767ZM173.574 73.3642L174.409 72.8143L174.409 72.8142L173.574 73.3642ZM174.71 119.985L173.74 119.742L173.74 119.742L174.71 119.985ZM169.961 135.054L169.028 134.696L168.631 135.73L169.701 136.019L169.961 135.054ZM178.006 134.814L177.679 133.869L177.679 133.869L178.006 134.814ZM194 114.602L194.936 114.954L194.936 114.953L194 114.602ZM196.88 53.5884L197.856 53.3727L197.856 53.3727L196.88 53.5884ZM169.12 2.02734L168.401 2.7225L168.403 2.72423L169.12 2.02734ZM169.896 1.42525L169.177 2.12041L169.179 2.12221L169.896 1.42525ZM197.9 53.427L198.877 53.2113L198.877 53.2112L197.9 53.427ZM194.975 114.918L194.039 114.566L194.039 114.566L194.975 114.918ZM178.386 135.688L178.712 136.633L178.713 136.633L178.386 135.688ZM169.613 135.936L169.879 134.972L169.011 134.733L168.682 135.571L169.613 135.936ZM163.643 148.869L162.762 148.396L162.762 148.396L163.643 148.869ZM146.527 172.449L147.244 173.146L147.245 173.146L146.527 172.449ZM128.863 186.756L129.384 187.61L129.385 187.609L128.863 186.756ZM98.684 196.753L98.6061 195.756L97.5112 195.841L97.6987 196.923L98.684 196.753ZM101.503 215.6L100.511 215.726L102.499 215.688L101.503 215.6ZM169.898 135.114C171.741 130.311 173.339 125.272 174.66 120.012L172.72 119.525C171.419 124.708 169.844 129.67 168.03 134.398L169.898 135.114ZM174.66 120.012C180.537 96.6218 178.62 81.0393 173.513 73.2809L171.843 74.3805C176.477 81.4215 178.556 96.2977 172.72 119.524L174.66 120.012ZM173.513 73.2808C171.763 70.6226 169.614 68.8602 167.245 68.1068L166.639 70.0127C168.467 70.5942 170.277 72.0028 171.843 74.3806L173.513 73.2808ZM167.245 68.1067C164.896 67.3604 162.413 67.6457 160.061 68.8736L160.986 70.6466C162.923 69.6357 164.856 69.4462 166.639 70.0128L167.245 68.1067ZM160.06 68.8738C154.919 71.5611 150.408 78.6529 148.335 89.6617L150.301 90.0317C152.327 79.2685 156.644 72.9162 160.987 70.6463L160.06 68.8738ZM148.335 89.6617C145.611 104.14 150.585 119.465 158.567 128.523L160.067 127.201C152.482 118.593 147.693 103.888 150.301 90.0316L148.335 89.6617ZM158.567 128.523C161.35 131.682 164.53 134.108 167.913 135.435L168.643 133.573C165.627 132.39 162.697 130.186 160.067 127.201L158.567 128.523ZM167.915 135.436C168.153 135.528 168.395 135.618 168.639 135.702L169.289 133.81C169.075 133.737 168.859 133.657 168.64 133.572L167.915 135.436ZM98.4735 195.722C87.9563 135.962 67.6261 103.428 48.1722 89.9147L47.0312 91.5573C65.8444 104.626 86.0249 136.527 96.5038 196.069L98.4735 195.722ZM48.1723 89.9147C38.682 83.3224 29.3711 81.2576 21.568 82.8977L21.9793 84.8549C29.1159 83.3549 37.8733 85.1958 47.0312 91.5573L48.1723 89.9147ZM21.5677 82.8978C13.7754 84.5378 7.60943 89.8625 4.3975 97.742L6.24955 98.4969C9.23056 91.184 14.8868 86.3477 21.9796 84.8549L21.5677 82.8978ZM4.39753 97.7419C-1.11344 111.259 2.05656 132.089 19.8103 155.136L21.3947 153.915C3.87509 131.173 1.11166 111.099 6.24953 98.497L4.39753 97.7419ZM19.8103 155.136C26.0851 163.281 33.3938 170.767 41.4332 177.085L42.6691 175.513C34.7678 169.303 27.5746 161.938 21.3947 153.915L19.8103 155.136ZM41.4332 177.085C53.952 186.925 68.2695 193.962 83.2346 196.232L83.5345 194.255C68.984 192.048 54.9806 185.19 42.6691 175.513L41.4332 177.085ZM83.2344 196.232C87.9545 196.949 92.7385 197.189 97.5495 196.895L97.4276 194.899C92.764 195.184 88.1216 194.951 83.5346 194.255L83.2344 196.232ZM98.4846 195.986L98.4848 195.984L96.4926 195.807L96.4924 195.809L98.4846 195.986ZM100.51 215.717C100.462 215.319 100.778 215.122 100.965 215.107L101.128 217.1C101.881 217.038 102.607 216.386 102.496 215.475L100.51 215.717ZM100.966 215.107C101.063 215.099 101.165 215.126 101.253 215.19C101.341 215.255 101.441 215.379 101.464 215.561L99.479 215.807C99.5878 216.688 100.408 217.158 101.127 217.1L100.966 215.107ZM101.463 215.558C100.629 208.973 99.68 202.675 98.6348 196.651L96.6643 196.993C97.7042 202.987 98.6482 209.254 99.4794 215.81L101.463 215.558ZM97.5877 195.824C92.82 196.12 88.0724 195.884 83.3835 195.172L83.0835 197.15C87.906 197.881 92.7957 198.125 97.7114 197.82L97.5877 195.824ZM83.3835 195.172C68.6306 192.933 54.4476 185.994 41.9936 176.204L40.7576 177.777C53.4198 187.73 67.9169 194.848 83.0834 197.15L83.3835 195.172ZM41.9936 176.204C34.0228 169.94 26.7719 162.515 20.5436 154.43L18.9592 155.65C25.2824 163.859 32.6489 171.404 40.7577 177.777L41.9936 176.204ZM20.5436 154.43C2.80789 131.409 0.0364117 111.012 5.27579 98.1609L3.42379 97.4058C-2.18693 111.168 0.985322 132.32 18.9592 155.65L20.5436 154.43ZM5.27583 98.1608C8.37667 90.5529 14.2901 85.512 21.7272 83.9461L21.3151 81.989C13.1838 83.7011 6.7576 89.2264 3.42375 97.4059L5.27583 98.1608ZM21.7271 83.9462C29.1572 82.3829 38.2253 84.2756 47.6565 90.8251L48.7973 89.1824C39.029 82.3988 29.4075 80.2864 21.3153 81.989L21.7271 83.9462ZM47.6564 90.8251C66.6505 104.019 87.0115 136.138 97.5408 195.995L99.5106 195.649C88.9424 135.571 68.4307 102.82 48.7974 89.1825L47.6564 90.8251ZM98.6028 196.819C108.693 196.039 118.869 192.89 128.794 186.832L127.752 185.125C118.091 191.022 108.219 194.069 98.4486 194.825L98.6028 196.819ZM128.794 186.832C134.804 183.164 140.718 178.431 146.46 172.525L145.026 171.131C139.39 176.927 133.607 181.552 127.752 185.125L128.794 186.832ZM146.46 172.525C152.963 165.836 158.754 157.926 163.587 148.923L161.825 147.977C157.075 156.823 151.393 164.581 145.026 171.131L146.46 172.525ZM163.587 148.923C165.783 144.834 167.781 140.519 169.559 135.992L167.697 135.261C165.948 139.716 163.983 143.959 161.825 147.977L163.587 148.923ZM168.95 134.68C168.719 134.602 168.485 134.515 168.246 134.421L167.52 136.285C167.777 136.385 168.039 136.483 168.307 136.574L168.95 134.68ZM168.248 134.422C165.068 133.174 162.001 130.87 159.264 127.764L157.763 129.086C160.656 132.369 163.974 134.893 167.518 136.284L168.248 134.422ZM159.264 127.764C151.519 118.973 146.624 103.974 149.281 89.8567L147.316 89.4867C144.541 104.227 149.623 119.846 157.763 129.086L159.264 127.764ZM149.281 89.8567C151.361 78.8112 155.872 72.2304 160.456 69.8337L159.529 68.0613C154.157 70.8701 149.445 78.1778 147.316 89.4867L149.281 89.8567ZM160.456 69.8337C162.654 68.6843 164.884 68.4683 166.973 69.13L167.577 67.2234C164.933 66.3859 162.154 66.6889 159.529 68.0614L160.456 69.8337ZM166.972 69.1298C169.04 69.7862 171.044 71.3412 172.739 73.9142L174.409 72.8142C172.522 69.949 170.175 68.0483 167.577 67.2235L166.972 69.1298ZM172.739 73.9141C177.49 81.1306 179.641 96.2592 173.74 119.742L175.68 120.229C181.624 96.5748 179.63 80.744 174.409 72.8143L172.739 73.9141ZM173.74 119.742C172.432 124.953 170.851 129.943 169.028 134.696L170.895 135.412C172.747 130.583 174.352 125.517 175.68 120.229L173.74 119.742ZM169.701 136.019C172.521 136.781 175.445 136.76 178.334 135.759L177.679 133.869C175.196 134.729 172.684 134.754 170.222 134.089L169.701 136.019ZM178.334 135.759C184.547 133.608 190.382 127.072 194.936 114.954L193.064 114.25C188.59 126.154 183.058 132.007 177.679 133.869L178.334 135.759ZM194.936 114.953C199.241 103.488 203.637 79.5381 197.856 53.3727L195.904 53.8042C201.592 79.5532 197.247 103.108 193.064 114.25L194.936 114.953ZM197.856 53.3727C194.017 35.9973 185.681 17.6359 169.838 1.33045L168.403 2.72423C183.955 18.7294 192.134 36.7424 195.904 53.8042L197.856 53.3727ZM169.839 1.33218C169.934 1.43026 170 1.58245 169.989 1.75585C169.977 1.9302 169.89 2.07626 169.777 2.16356L168.553 0.581533C167.859 1.11819 167.804 2.10493 168.401 2.7225L169.839 1.33218ZM169.777 2.16356C169.672 2.24458 169.558 2.26689 169.469 2.26046C169.379 2.25403 169.269 2.21565 169.177 2.12041L170.615 0.730093C170.07 0.166889 169.17 0.104046 168.553 0.581533L169.777 2.16356ZM169.179 2.12221C184.872 18.2688 193.122 36.4373 196.924 53.6428L198.877 53.2112C195.005 35.692 186.598 17.1751 170.613 0.728295L169.179 2.12221ZM196.924 53.6427C202.652 79.5764 198.268 103.323 194.039 114.566L195.911 115.27C200.261 103.703 204.697 79.5617 198.877 53.2113L196.924 53.6427ZM194.039 114.566C189.46 126.749 183.71 132.786 178.059 134.743L178.713 136.633C185.188 134.39 191.246 127.683 195.912 115.27L194.039 114.566ZM178.059 134.743C175.325 135.687 172.567 135.712 169.879 134.972L169.348 136.9C172.401 137.74 175.574 137.718 178.712 136.633L178.059 134.743ZM168.682 135.571C166.92 140.065 164.939 144.344 162.762 148.396L164.524 149.343C166.739 145.219 168.754 140.867 170.544 136.301L168.682 135.571ZM162.762 148.396C157.975 157.31 152.242 165.135 145.81 171.752L147.245 173.146C153.811 166.39 159.653 158.413 164.524 149.343L162.762 148.396ZM145.811 171.752C140.113 177.612 134.266 182.286 128.342 185.902L129.385 187.609C135.464 183.898 141.44 179.116 147.244 173.146L145.811 171.752ZM128.342 185.902C118.543 191.884 108.525 194.981 98.6061 195.756L98.7618 197.75C108.999 196.95 119.321 193.752 129.384 187.61L128.342 185.902ZM97.6987 196.923C98.7365 202.915 99.6789 209.176 100.511 215.726L102.495 215.474C101.659 208.895 100.712 202.604 99.6693 196.582L97.6987 196.923ZM102.499 215.688L102.499 215.684L100.507 215.508L100.507 215.512L102.499 215.688Z" fill="#01A0DE" mask="url(#path-1-outside-1_34_249)"/>
</g>
</svg>
