<svg width="191" height="115" viewBox="0 0 191 115" fill="none" xmlns="http://www.w3.org/2000/svg">
<path opacity="0.2" d="M131.359 74.428C98.8818 74.428 72.5654 48.382 72.5654 16.2486C72.5654 10.7708 73.328 5.47206 74.7627 0.44189L187.956 0.441894C189.391 5.47206 190.153 10.7751 190.153 16.2528C190.153 48.382 163.837 74.428 131.359 74.428Z" fill="#57595C" fill-opacity="0.2"/>
<g opacity="0.2">
<path d="M12.5371 0.92334L0.707031 12.7558V13.9707L13.7412 0.92334H12.5371Z" fill="#57595C" fill-opacity="0.3"/>
<path d="M24.5328 0.92334L0.707031 24.764V25.9588L25.7368 0.92334H24.5328Z" fill="#57595C" fill-opacity="0.3"/>
<path d="M36.5184 0.92334L0.707031 36.7572V37.9721L37.7275 0.92334H36.5184Z" fill="#57595C" fill-opacity="0.3"/>
<path d="M48.499 0.92334L0.707031 48.7503V49.9652L49.7131 0.92334H48.499Z" fill="#57595C" fill-opacity="0.3"/>
<path d="M60.4946 0.92334L0.707031 60.7535V61.9583L61.6987 0.92334H60.4946Z" fill="#57595C" fill-opacity="0.3"/>
<path d="M72.4902 0.92334L0.707031 72.7517V73.9465L73.6943 0.92334H72.4902Z" fill="#57595C" fill-opacity="0.3"/>
<path d="M84.4759 0.92334L0.707031 84.7448V85.9597L85.685 0.92334H84.4759Z" fill="#57595C" fill-opacity="0.3"/>
<path d="M96.4565 0.92334L0.707031 96.7379V97.9528L97.6706 0.92334H96.4565Z" fill="#57595C" fill-opacity="0.3"/>
<path d="M108.452 0.92334L0.707031 108.741V109.946L109.656 0.92334H108.452Z" fill="#57595C" fill-opacity="0.3"/>
<path d="M6.51147 114.931H7.71555L114.648 7.9314V6.72656L6.51147 114.931Z" fill="#57595C" fill-opacity="0.3"/>
<path d="M19.7062 114.931L114.648 19.9296V18.7197L18.4971 114.931H19.7062Z" fill="#57595C" fill-opacity="0.3"/>
<path d="M31.6918 114.931L114.648 31.9227V30.7129L30.4827 114.931H31.6918Z" fill="#57595C" fill-opacity="0.3"/>
<path d="M43.6784 114.931L114.649 43.9158V42.7109L42.4844 114.931H43.6784Z" fill="#57595C" fill-opacity="0.3"/>
<path d="M55.6731 114.931L114.648 55.9192V54.7144L54.469 114.931H55.6731Z" fill="#57595C" fill-opacity="0.3"/>
<path d="M67.6637 114.931L114.648 67.9174V66.7075L66.4546 114.931H67.6637Z" fill="#57595C" fill-opacity="0.3"/>
<path d="M79.6495 114.931L114.648 79.9104V78.7056L78.4404 114.931H79.6495Z" fill="#57595C" fill-opacity="0.3"/>
<path d="M91.6347 114.931L114.648 91.9136V90.6987L90.4407 114.931H91.6347Z" fill="#57595C" fill-opacity="0.3"/>
<path d="M103.636 114.931L114.648 103.907V102.702L102.427 114.931H103.636Z" fill="#57595C" fill-opacity="0.3"/>
</g>
</svg>
