<?xml version="1.0" encoding="utf-8"?>
<!-- Generator: Adobe Illustrator 19.2.1, SVG Export Plug-In . SVG Version: 6.00 Build 0)  -->
<svg version="1.1" id="Layer_1" xmlns="http://www.w3.org/2000/svg" xmlns:xlink="http://www.w3.org/1999/xlink" x="0px" y="0px"
	 viewBox="0 0 595.3 162.7" style="enable-background:new 0 0 595.3 162.7;" xml:space="preserve">
<style type="text/css">
	.st0{fill:#575858;}
	.st1{fill:#F7A800;}
	.st2{fill:#A6D034;}
	.st3{fill:#00A1DF;}
	.st4{fill:#9C6D0A;}
	.st5{fill:#668622;}
	.st6{fill:#01678E;}
	.st7{fill:#F42534;}
	.st8{fill:#BE142A;}
	.st9{fill:#F6937C;}
</style>
<polygon class="st0" points="233.9,104.8 223,104.8 223,76.9 210.6,97.2 209.4,97.2 197,76.9 197,104.8 186.1,104.8 186.1,56.9 
	197,56.9 210,78.2 223,56.9 233.9,56.9 "/>
<path class="st0" d="M266.6,87.7L266.6,87.7c0-5.1-3.4-8.3-8.1-8.3c-4.7,0-8.1,3.2-8.1,8.3c0,5.1,3.4,8.3,8.1,8.3
	C263.2,96,266.6,92.8,266.6,87.7 M276.9,70.6v34.2h-10.3v-3.2c-2.3,2.6-5.6,4.2-10.2,4.2c-9,0-16.3-7.9-16.3-18.1
	c0-10.2,7.4-18.1,16.3-18.1c4.6,0,7.9,1.6,10.2,4.2v-3.2H276.9z"/>
<polygon class="st0" points="305.6,104.8 294.7,89.7 294.7,104.8 284.4,104.8 284.4,56.9 294.7,56.9 294.7,85.6 304.9,70.6 
	316.9,70.6 304.4,87.7 317.2,104.8 "/>
<path class="st0" d="M342.6,84.1L342.6,84.1c-1.1-4-4.2-5.4-7.2-5.4c-3.9,0-6.5,1.9-7.5,5.4H342.6z M336.3,96.6
	c2.8,0,5.2-1.1,6.6-2.6l8.2,4.7c-3.4,4.7-8.4,7-14.9,7c-11.7,0-18.9-7.9-18.9-18.1c0-10.2,7.4-18.1,18.2-18.1
	c10,0,17.4,7.7,17.4,18.1c0,1.4-0.1,2.8-0.4,4.1h-24.3C329.4,95.3,332.5,96.6,336.3,96.6z"/>
<path class="st0" d="M357.9,94.2l3.1-1.8c1.6,5.7,6.5,9.6,14.4,9.6c8,0,12-4.1,12-9.6c0-5.7-5.1-7.9-12.4-10.3
	c-8-2.6-15.2-4.9-15.2-13.2c0-7.9,6.4-12.9,14.5-12.9c7.9,0,13.1,4.5,15.4,10.1l-3.1,1.7c-1.8-4.3-5.5-8.3-12.3-8.3
	c-6.6,0-10.8,3.9-10.8,9.2c0,5.7,4.9,7.5,11.7,9.8c8.5,2.8,15.9,5.5,15.9,13.7c0,7.9-6.2,13.1-15.7,13.1
	C366.5,105.5,360.1,101,357.9,94.2"/>
<path class="st0" d="M405.6,73.9v22.2c0,6,3.2,6.2,10.2,5.5v3.1c-9,1.4-13.7-0.8-13.7-8.6V73.9h-7.5v-3.4h7.5V62l3.5-1v9.6h10.2v3.4
	H405.6z"/>
<path class="st0" d="M424,70.6L424,70.6h3.4v34.2H424V70.6z M423,59.6c0-1.4,1.2-2.7,2.7-2.7s2.7,1.2,2.7,2.7c0,1.5-1.2,2.7-2.7,2.7
	S423,61.1,423,59.6z"/>
<path class="st0" d="M435.7,87.7c0-10.1,7.7-17.8,18-17.8c6.7,0,12.4,3.4,14.9,8.8l-2.8,1.6c-2-4.3-6.6-7.1-12.1-7.1
	c-8.3,0-14.5,6.4-14.5,14.6c0,8.1,6.2,14.6,14.5,14.6c5.5,0,10.1-2.9,12.3-7.1l2.9,1.7c-2.7,5.3-8.5,8.7-15.2,8.7
	C443.3,105.5,435.7,97.8,435.7,87.7"/>
<polygon class="st0" points="497.9,104.8 479.8,87.9 479.8,104.8 476.4,104.8 476.4,56.9 479.8,56.9 479.8,86.1 497.1,70.6 
	501.9,70.6 483.5,87 502.5,104.8 "/>
<path class="st0" d="M507.2,86.1L507.2,86.1h27.5c-0.8-8.3-6.6-13-13.3-13C513.6,73.1,507.9,78.5,507.2,86.1 M538.2,87.8
	c0,0.5-0.1,1.1-0.1,1.6h-31c0.8,7.7,6.7,12.8,14.5,12.8c5.6,0,9.8-2.6,11.8-6.2l3,1.8c-2.8,4.7-8.1,7.7-14.9,7.7
	c-10.5,0-18-7.5-18-17.8c0-10.1,7.2-17.8,17.7-17.8C531.7,69.8,538.2,78.4,538.2,87.8z"/>
<path class="st0" d="M561.1,70.1v3.3c-5.9,0-11.4,3.6-11.4,12.4v19h-3.4V70.6h3.4v6.7C552,71.9,556.4,70.1,561.1,70.1"/>
<path class="st0" d="M589.7,95.8c0,5.6-4.9,9.7-12.2,9.7c-6.8,0-11.4-3.2-13-7.6l2.9-1.7c1.2,3.7,4.9,6,10.1,6
	c4.8,0,8.8-2.1,8.8-6.4c0-9.3-20.7-4-20.7-16.3c0-5.4,4.7-9.7,11.6-9.7c5.5,0,9.8,2.7,11.6,6.8l-2.9,1.6c-1.4-3.6-5-5.2-8.8-5.2
	c-4.4,0-8.2,2.3-8.2,6.4C568.9,88.7,589.7,83.3,589.7,95.8"/>
<path class="st1" d="M42.4,101.6L26.4,40.4c0,0,0,0,0,0c-1.4-5.4-3-2.9-3.5-0.4L5.7,106.8c-0.4,1.4,0.9,2.8,2.4,2.4L42.4,101.6z"/>
<path class="st2" d="M24.5,37.2c0.5,0,1.2,0.9,1.8,3.2c0,0,0,0,0,0l15.3,58.3l0,0l1.1,4.2c0,0,0.1,0,4.4,16.5c4.4,16.9,8.1,2,8.1,2
	l19.3-62.3l-6.2-20.2c-0.4-1.3-1.6-2.2-2.9-2.1L24.5,37.2z"/>
<path class="st3" d="M88.3,24.8L88.3,24.8c-1.7-6.4-3.4-3.5-4.1-1l-28.9,97.7l0,0c0,0-1.6,5.9-3.4,6l0,0l58.5-19.6L88.3,24.8z"/>
<polygon class="st4" points="26.4,40.4 35.3,103.2 42.4,101.6 "/>
<polygon class="st5" points="71,47.4 74.2,57.7 55.3,121.5 "/>
<polygon class="st6" points="88.3,24.8 100.4,111.2 110,108 "/>
<path class="st7" d="M173.1,124.5l-30.5-97.9c-0.5-1.5-1.9-2.6-3.5-2.7c-11.1-0.6-52.9-2.9-53-2.9c0.6,0.1,1.4,1.1,2.2,3.9v0
	l0.1,0.4h0l26,99.5l35,16.1l21.8-11.5C172.9,128.3,173.7,126.3,173.1,124.5"/>
<path class="st8" d="M149.4,140.7l-3.2-18.4c-0.3-1.9-2.1-3.1-4-2.8l-1.8,0.3L149.4,140.7z"/>
<path class="st9" d="M133.3,114.7l-19,10l35,16.1l-10.5-24.1C138,114.5,135.4,113.6,133.3,114.7"/>
</svg>
