<svg width="187" height="118" viewBox="0 0 187 118" fill="none" xmlns="http://www.w3.org/2000/svg">
<path d="M10.4472 1.71021C12.7577 3.18185 14.6339 4.38033 16.8867 5.81783C16.6323 3.99108 16.4389 2.61163 16.215 1C17.3448 1.30389 18.4033 1.57022 19.4517 1.87069C39.5338 7.66847 60.0128 11.0454 80.8752 12.0288C86.0696 12.2746 91.2776 12.2268 96.4788 12.3224C96.9843 12.3326 97.5543 12.2473 97.9784 12.4522C102.555 14.6511 107.502 15.211 112.439 15.8325C112.774 15.8735 113.151 15.8632 113.433 16.0169C113.772 16.2012 114.227 16.5085 114.271 16.8159C114.315 17.1163 113.982 17.5807 113.694 17.8129C112.038 19.1343 110.345 20.4045 108.798 21.9103C111.886 22.0195 114.617 21.2444 117.124 19.305C120.201 23.0643 123.879 22.4122 127.716 20.7766C128.11 20.6093 128.853 20.6981 129.148 20.9747C130.336 22.0878 131.415 23.3238 132.616 24.6043C131.085 24.7955 129.538 24.8843 128.039 25.195C124.212 25.994 123.123 27.1788 122.654 31.0371C122.322 33.7824 121.938 36.5379 121.915 39.2933C121.905 40.427 122.702 41.6118 123.292 42.6839C123.496 43.0561 124.181 43.1585 124.646 43.3839C124.738 42.9127 124.965 42.421 124.9 41.9703C124.724 40.7377 124.313 39.5324 124.191 38.2929C123.682 33.2224 125.837 29.2548 129.433 25.9359C129.688 25.7003 130.23 25.434 130.437 25.5501C132.531 26.7212 135.289 26.8681 136.314 29.685C137.162 32.0273 138.312 34.2604 139.211 36.5857C139.415 37.1183 139.279 37.8968 139.052 38.4602C138.553 39.6997 137.898 40.8777 137.305 42.0796C137.413 42.2605 137.522 42.4415 137.627 42.6259C139.215 42.1854 140.877 41.9191 142.367 41.2567C143.632 40.6933 144.799 39.7884 145.824 38.8324C147.473 37.2925 149.722 35.9028 148.083 33.137C150.557 32.6283 152.857 32.3176 155.059 31.6586C157.2 31.0167 157.38 30.1118 155.996 28.169C157.115 26.5539 158.228 24.8569 159.449 23.2453C159.748 22.8526 160.389 22.6649 160.908 22.5146C163.572 21.7532 166.276 21.1215 168.898 20.244C169.743 19.9606 170.775 19.206 171.049 18.4275C172.118 15.3852 172.919 12.2507 173.815 9.14694C173.967 8.61428 174.079 8.07138 174.184 7.64116C175.765 7.82895 177.221 7.93822 178.649 8.20454C179.104 8.28991 179.667 8.71672 179.85 9.1367C180.397 10.3762 180.763 11.6976 181.231 12.9746C181.377 13.3741 181.577 14.0296 181.828 14.0672C184.237 14.4325 184.197 16.85 185.557 18.1373C183.881 19.4245 182.286 20.5069 180.865 21.7839C179.606 22.9107 178.483 24.2048 177.401 25.5091C175.745 27.5066 175.721 29.6372 177.136 31.802C177.72 32.6932 178.296 33.5878 178.931 34.5643C177.353 35.3428 175.803 36.012 174.351 36.852C172.885 37.6988 171.47 38.6514 170.116 39.6689C168.851 40.6216 168.006 41.5571 168.495 43.6024C168.888 45.2584 168.088 47.2354 167.65 49.0314C167.548 49.4548 166.785 49.7177 166.181 50.1616C167.826 52.4186 166.347 54.696 165.078 56.8608C164.26 58.2539 164.111 59.4046 164.922 60.7806C165.38 61.5557 165.641 62.4469 166.014 63.2732C167.222 65.9467 166.534 68.3369 164.081 69.9553C163.986 70.0168 163.86 70.068 163.809 70.1568C162.089 73.1684 159.222 75.217 157.268 78.0374C155.619 80.4139 153.984 82.8108 152.168 85.0542C150.492 87.1233 150.004 89.3871 150.967 91.7431C152.145 94.6181 153.61 97.377 155.083 100.119C155.911 101.666 157.01 103.062 157.963 104.541C160.586 108.59 160.043 112.165 156.162 115.539C155.269 114.75 154.241 114.033 153.454 113.107C150.991 110.215 148.596 107.262 146.234 104.284C145.841 103.789 145.681 103.066 145.542 102.417C144.253 96.4619 141.827 95.0961 136.215 97.2677C132.989 93.9659 129.063 93.8567 124.907 94.963C120.883 96.0351 120.256 97.1482 121.552 101.191C117.653 100.873 113.85 100.518 110.043 100.266C107.689 100.109 105.297 99.8798 102.976 100.139C101.795 100.272 100.696 101.372 99.6137 102.116C98.6943 102.751 97.897 103.571 96.9639 104.179C95.9257 104.858 94.7654 105.346 93.7068 106.002C90.1715 108.187 89.2758 110.69 90.538 114.699C90.7042 115.231 90.8738 115.764 91.1283 116.563C90.124 116.461 89.286 116.474 88.4955 116.276C87.2944 115.976 86.1476 115.436 84.9432 115.163C82.4529 114.603 81.1297 113.148 80.8108 110.564C80.692 109.614 80.0643 108.703 79.5588 107.839C78.4765 105.981 77.4315 104.086 76.1626 102.359C75.2805 101.157 74.1099 100.143 72.9428 99.2003C72.6782 98.9852 71.6909 99.2174 71.4025 99.5554C69.5771 101.71 67.7552 101.362 65.5024 100.139C63.5549 99.0842 62.0247 98.0258 61.0747 95.8507C60.2096 93.8737 58.788 92.047 57.2884 90.4661C54.8523 87.9018 52.2399 87.6253 49.1286 89.1071C48.7079 89.3086 48.1549 89.3871 47.6901 89.3222C41.0673 88.3867 34.7533 86.4234 29.1416 82.7289C26.1797 80.7792 23.1193 79.3964 19.6519 78.9354C17.6535 78.6691 16.388 77.7984 15.8451 75.7326C14.9121 72.1782 12.3302 70.0305 9.21558 68.4393C7.50221 67.5618 6.72186 66.2882 6.29437 64.2805C4.94742 57.9535 3.08137 51.7391 1.69371 45.4189C1.10336 42.7317 1.19836 39.8909 1.00158 37.1183C0.988007 36.9135 1.06265 36.6369 1.19836 36.4935C3.33923 34.2638 3.21709 31.3786 3.31209 28.6265C3.37316 26.8442 3.71922 25.2564 4.75403 23.836C8.25542 19.0284 9.46665 13.4526 10.1215 7.69237C10.1927 7.07777 10.0943 6.44267 10.1316 5.82465C10.2097 4.57496 10.3284 3.32867 10.4607 1.70338L10.4472 1.71021Z" stroke="black" stroke-width="2" stroke-miterlimit="10" stroke-linejoin="round"/>
<circle cx="127.287" cy="49.2872" r="3.28719" fill="black"/>
<circle cx="127.287" cy="65.2872" r="3.28719" fill="black"/>
<circle cx="152.787" cy="98.4337" r="3.28719" fill="black"/>
<circle cx="158.287" cy="65.2872" r="3.28719" fill="black"/>
<circle cx="159.287" cy="37.2872" r="3.28719" fill="black"/>
<circle cx="166.287" cy="27.2872" r="3.28719" fill="black"/>
<circle cx="64.2872" cy="46.2872" r="3.28719" fill="black"/>
<circle cx="83.2872" cy="52.2872" r="3.28719" fill="black"/>
<circle cx="13.1055" cy="21.0516" r="3.28719" fill="black"/>
<path d="M13.8184 19.4684C35.7677 14.0232 86.6968 10.459 114.818 39.7644" stroke="black" stroke-linecap="round"/>
<path d="M126.993 49C127.134 45.9251 125.133 40.0466 116 41.1319" stroke="black" stroke-linecap="round"/>
<path d="M152.977 99C153.463 75.9383 146.55 31.8498 115 39.9892" stroke="black" stroke-linecap="round"/>
<path d="M127 64.5001C111.5 58 114 49.5 114 39.9893" stroke="black" stroke-linecap="round"/>
<path d="M116 40C130.027 15.756 149.845 26.2551 158 34.5352" stroke="black" stroke-linecap="round"/>
<path d="M115.5 39C149.5 30 156 53 158 64.5352" stroke="black" stroke-linecap="round"/>
<path d="M116 37.5C130.027 13.256 157.845 18.2551 166 26.5352" stroke="black" stroke-linecap="round"/>
<path d="M113 38.7644C101.532 31.5288 70.7767 35.1466 64 46" stroke="black" stroke-linecap="round" stroke-linejoin="round"/>
<path d="M114 40.0001C107.447 32.7644 88.5 43 85 51" stroke="black" stroke-linecap="round" stroke-linejoin="round"/>
<circle cx="114.318" cy="39.2644" r="4.5" fill="#F42534"/>
</svg>
