<svg width="159" height="148" viewBox="0 0 159 148" fill="none" xmlns="http://www.w3.org/2000/svg">
<g clip-path="url(#clip0_105_2161)">
<path d="M117.481 131.759C121.618 125.805 125.8 120.647 130.521 117.669C130.731 117.549 130.926 117.429 131.136 117.293C131.241 117.233 131.361 117.158 131.466 117.098C133.534 115.835 135.648 114.466 137.806 113.023C143.921 108.902 148.058 105.068 151.506 99.5188C155.747 92.6918 156.977 77.2031 157.306 64.9474C157.936 41.3685 157.501 27.7444 150.681 30.2858C144.251 32.6767 144.626 51.3685 143.712 66.6617" stroke="black" stroke-width="2" stroke-linecap="round" stroke-linejoin="round"/>
<path d="M121.903 104.977C127.449 96.9925 132.98 93.0076 139.755 87.1429C146.679 81.1429 151.101 77.3234 147.699 73.6392C144.116 69.7745 132.26 74.8572 122.997 82.0452C116.312 87.2331 108.143 88.8722 103.632 94.7068C99.9296 99.4888 98.4157 104.932 97.4714 109.399C96.722 112.887 95.9426 115.895 95.0882 118.602" stroke="black" stroke-width="2" stroke-linecap="round" stroke-linejoin="round"/>
<path d="M140.729 39.2782C139.59 39.5188 138.376 40.5865 137.281 42.4812C134.314 47.594 135.063 58.7068 135.423 68.5263" stroke="black" stroke-width="2" stroke-linecap="round" stroke-linejoin="round"/>
<path d="M130.656 49.1429C130.177 49.6542 129.712 50.361 129.292 51.2482C127.269 55.5339 128.828 62.5565 129.727 71.2933" stroke="black" stroke-width="2" stroke-linecap="round" stroke-linejoin="round"/>
<path d="M123.762 59.8798C123.327 60.376 122.922 61.0677 122.562 61.9399C121.243 65.2632 122.862 67.8798 123.911 74.6467" stroke="black" stroke-width="2" stroke-linecap="round" stroke-linejoin="round"/>
<path d="M90.6822 117.412L84.574 127.887C84.2479 128.446 84.4354 129.164 84.9927 129.491L113.726 146.357C114.284 146.684 115 146.496 115.326 145.937L121.434 135.462C121.76 134.903 121.572 134.185 121.015 133.858L92.2816 116.992C91.7243 116.665 91.0082 116.853 90.6822 117.412Z" stroke="black" stroke-width="2" stroke-linecap="round" stroke-linejoin="round"/>
<path d="M41.5187 130.256C37.3818 124.301 33.1999 119.143 28.4785 116.165C28.2687 116.045 28.0738 115.925 27.864 115.789C27.759 115.729 27.6391 115.654 27.5342 115.594C25.4658 114.331 23.3524 112.962 21.194 111.519C15.0786 107.399 10.9417 103.564 7.49433 98.0151C3.25253 91.188 2.02346 75.6993 1.69371 63.4436C1.06418 39.8647 1.49886 26.2406 8.31871 28.782C14.7489 31.173 14.3741 49.8647 15.2884 65.1579" stroke="black" stroke-width="2" stroke-linecap="round" stroke-linejoin="round"/>
<path d="M37.097 103.474C31.5512 95.4887 26.0204 91.5038 19.2455 85.6391C12.3207 79.6391 7.89903 75.8196 11.3015 72.1354C14.8838 68.2707 26.7398 73.3534 36.0028 80.5414C42.6878 85.7294 50.8566 87.3684 55.3682 93.203C59.0704 97.985 60.5843 103.429 61.5286 107.895C62.278 111.383 63.0574 114.391 63.9118 117.098" stroke="black" stroke-width="2" stroke-linecap="round" stroke-linejoin="round"/>
<path d="M18.2712 37.7744C19.4103 38.015 20.6244 39.0827 21.7186 40.9774C24.6863 46.0902 23.9369 57.203 23.5772 67.0225" stroke="black" stroke-width="2" stroke-linecap="round" stroke-linejoin="round"/>
<path d="M28.3286 47.6392C28.8083 48.1504 29.2729 48.8572 29.6926 49.7444C31.7161 54.0301 30.1572 61.0527 29.2579 69.7895" stroke="black" stroke-width="2" stroke-linecap="round" stroke-linejoin="round"/>
<path d="M35.2384 58.376C35.6731 58.8722 36.0778 59.5639 36.4375 60.4361C37.7565 63.7594 36.1377 66.376 35.0885 73.1429" stroke="black" stroke-width="2" stroke-linecap="round" stroke-linejoin="round"/>
<path d="M66.7341 115.468L38.0006 132.333C37.4433 132.66 37.2558 133.379 37.5819 133.938L43.69 144.412C44.0161 144.971 44.7322 145.16 45.2895 144.832L74.0231 127.967C74.5804 127.64 74.7678 126.921 74.4418 126.362L68.3336 115.888C68.0075 115.329 67.2914 115.141 66.7341 115.468Z" stroke="black" stroke-width="2" stroke-linecap="round" stroke-linejoin="round"/>
<path d="M90.8764 33.2481C86.5147 29.6691 85.0608 23.8947 86.8595 18.5864C88.748 12.9924 93.4994 8.91723 98.6555 6.37588C105.206 3.15783 112.94 1.69919 120.239 1.7443C118.591 5.54881 118.246 9.83452 117.511 13.8796C116.627 18.6917 115.383 23.4887 112.7 27.639C107.994 34.9623 98.4007 39.4285 90.8614 33.2481H90.8764Z" stroke="black" stroke-width="2.32" stroke-linecap="round" stroke-linejoin="round"/>
<path d="M47.3947 15.7352C43.9706 15.8495 40.5587 16.3093 37.3069 17.0527C39.735 20.4061 40.9941 24.5264 42.5829 28.3008C44.4714 32.797 46.7497 37.2181 50.2421 40.6918C56.4174 46.8121 66.7446 49.0978 72.7701 41.4286V41.4136C76.2475 36.9775 76.4273 31.0226 73.5195 26.2406C72.2909 24.2104 70.6653 22.52 68.7985 21.1365" stroke="black" stroke-width="2.32" stroke-linecap="round" stroke-linejoin="round"/>
<path d="M53.8843 25.5639C82.7525 38.6015 80.5042 85.9549 80.5042 85.9549C80.5042 85.9549 79.8597 31.3534 107.274 12.5414" stroke="black" stroke-width="2.32" stroke-linecap="round" stroke-linejoin="round"/>
<ellipse cx="58.6058" cy="15.8206" rx="4.58654" ry="4.5931" fill="#A4D233"/>
</g>
<defs>
<clipPath id="clip0_105_2161">
<rect width="159" height="148" fill="white"/>
</clipPath>
</defs>
</svg>
