<svg width="171" height="144" viewBox="0 0 171 144" fill="none" xmlns="http://www.w3.org/2000/svg">
<path d="M65.7247 26.7821C65.7247 27.6319 66.7022 28.7133 67.4406 28.6922C68.1227 28.6782 69.1072 27.5897 69.0861 26.8734C69.065 26.0448 68.2633 25.1389 67.546 25.1249C66.4631 25.1038 65.7176 25.785 65.7247 26.7751V26.7821Z" fill="white"/>
<path d="M47.3352 135.016C45.978 134.335 45.3802 133.282 44.9513 131.997C44.5574 130.817 43.9034 129.721 43.3127 128.619C42.8627 127.783 42.9611 127.046 43.5589 126.365C44.2832 125.529 44.2691 124.686 43.6784 123.801C42.8205 122.509 42.4759 121.063 42.5462 119.553C42.5884 118.563 42.0328 118.085 41.3788 117.566C40.5842 116.941 39.7544 116.33 39.0863 115.585C38.0877 114.476 37.0258 113.717 35.4295 113.963C35.1271 114.005 34.6137 113.738 34.452 113.464C33.3971 111.667 31.9344 110.262 30.331 108.97C29.3816 108.205 28.5167 107.313 27.6798 106.421C26.5265 105.199 26.3788 103.774 27.068 102.278C27.9189 100.424 28.8401 98.5981 29.677 96.7371C29.9231 96.1964 30.1341 95.5574 30.0849 94.9886C29.9935 93.9493 30.3029 93.0785 30.8655 92.2779C31.3296 91.6178 31.4281 91.0841 30.6264 90.6206C29.452 89.9395 28.3198 89.181 27.1172 88.556C26.1608 88.0575 25.3169 88.4296 24.5926 89.167C23.165 90.6136 22.1664 90.4591 21.5054 88.5209C21.0694 87.2358 20.9639 85.8454 20.7248 84.4971C20.6264 83.9494 20.5209 83.4016 20.4717 82.8539C20.3029 80.9227 18.812 79.9466 17.504 78.9283C16.2241 77.9312 15.0145 76.9129 14.1003 75.5506C13.8331 75.1503 13.4393 74.8062 13.0314 74.5393C10.8022 73.1068 9.16364 71.2669 8.68544 68.5703C8.63621 68.2964 8.49556 67.9874 8.29866 67.8049C7.51807 67.0886 7.39148 66.2178 7.34929 65.1996C7.30709 64.1532 7.0469 63.0507 6.61792 62.0886C5.38726 59.3218 6.11863 56.9061 7.722 54.6098C8.36195 53.6898 8.92454 52.812 8.29866 51.6393C8.19317 51.4427 8.29866 50.9722 8.47446 50.8107C9.74029 49.6449 10.985 48.4511 12.729 47.9525C13.0314 47.8683 13.3901 47.159 13.3409 46.7939C13.1228 45.1155 13.6995 43.7532 14.9231 42.7349C16.407 41.506 16.8711 40.0032 16.4702 38.2125C16.3577 37.6998 16.0061 37.2223 15.6967 36.7729C15.4646 36.4428 15.1341 36.183 14.8317 35.9021C13.9316 35.0594 13.5237 34.1606 14.2058 32.9457C14.5715 32.2926 14.7333 31.5272 15.0145 30.8249C15.2747 30.1859 15.7108 29.7856 16.4562 29.7294C17.504 29.6452 18.594 29.6311 19.5856 29.3291C21.7234 28.6761 23.8261 27.8966 25.9147 27.089C26.6672 26.7941 27.2297 26.162 27.3141 25.2983C27.4688 23.648 28.1791 22.4051 29.4238 21.2464C30.9569 19.8208 31.1046 17.7914 30.8373 15.7759C30.7811 15.3686 30.6404 14.9754 30.6193 14.5681C30.5631 13.4515 29.9653 12.6861 29.023 12.2226C27.6868 11.5695 26.8922 10.5793 26.632 9.09762C26.4421 8.00915 25.7318 7.23669 24.8458 6.59063C24.0792 6.03586 23.3619 5.40384 22.6236 4.80694C22.6446 4.69458 22.6728 4.58222 22.6939 4.46986C23.594 4.37155 24.4942 4.17492 25.3943 4.18195C38.9878 4.20301 52.5814 4.25217 66.1749 4.30133C68.0807 4.30835 69.9794 4.37155 71.8852 4.45582C72.8134 4.49795 72.8767 4.64542 72.5814 5.55131C72.4829 5.8603 72.4055 6.16928 72.279 6.46422C71.2874 8.82375 72.2016 10.7549 73.601 12.6229C75.2255 14.7998 76.1046 17.2787 76.4632 19.9683C76.5406 20.5371 76.8219 21.141 77.1664 21.6115C77.7361 22.377 78.0174 23.1775 78.0385 24.1256C78.3338 36.5552 78.6362 48.9778 78.9316 61.4075C79.0511 66.4636 79.1918 71.5197 79.2269 76.5829C79.234 77.5941 78.805 78.6123 78.594 79.6306C78.5096 80.0449 78.2987 80.5224 78.4182 80.8876C78.7276 81.8075 78.4604 82.5519 77.947 83.2682C77.5321 83.844 77.5392 84.3145 78.1299 84.771C78.6854 85.1993 78.9667 85.7681 79.0089 86.5055C79.03 86.8566 79.3957 87.1797 79.5504 87.5378C79.7333 87.9591 80.0708 88.4647 79.9724 88.8369C79.67 89.9675 79.7051 91.035 80.1622 92.0883C80.4717 92.8116 80.2607 93.3453 79.7966 93.9282C79.0441 94.8762 78.369 95.8945 77.6587 96.8846C77.5954 96.9759 77.5181 97.0883 77.511 97.2006C77.3915 99.2512 75.7529 100.55 74.9161 102.243C74.4309 103.226 73.3409 103.928 72.4618 104.686C71.9133 105.157 71.8711 105.522 72.4196 105.944C73.0244 106.4 73.0525 106.835 72.6376 107.495C71.7375 108.935 70.8655 110.403 71.1468 112.229C71.1819 112.432 71.0905 112.776 70.9358 112.875C70.0356 113.464 70.4224 114.174 70.5138 114.981C70.5982 115.691 70.338 116.568 69.9372 117.186C69.0441 118.584 68.8964 119.827 69.9794 121.196C70.6475 122.046 70.5138 122.404 69.459 122.811C68.4252 123.212 67.3493 123.492 66.2874 123.823C65.3943 124.103 64.5082 124.384 63.6151 124.665C62.6446 124.967 62.4056 125.852 62.2368 126.653C62.0399 127.565 62.1454 128.464 62.8416 129.272C64.1074 130.747 63.58 131.933 62.3774 132.98C62.1735 133.162 61.6672 133.197 61.3999 133.078C59.016 131.976 56.6461 130.838 54.2832 129.679C53.5026 129.3 52.8556 129.581 52.3704 130.094C51.5124 131.006 50.7178 131.99 49.9794 133.001C49.7825 133.275 49.8739 133.766 49.8387 134.159C49.8036 134.56 49.7684 134.967 49.7403 135.367C49.3957 135.248 49.016 135.185 48.7065 135.002C48.2072 134.7 47.7501 134.377 47.3282 135.058L47.3352 135.016Z" stroke="black" stroke-width="2" stroke-miterlimit="10" stroke-linejoin="round"/>
<circle cx="67.1475" cy="20.3027" r="4.5" fill="#F7A800"/>
<path d="M72 15.5C78.3333 3.1667 116.5 -13 135 23.5" stroke="black" stroke-width="2" stroke-dasharray="4 4"/>
<rect x="121.5" y="67.5" width="48" height="33" stroke="black" stroke-width="2" stroke-linecap="round"/>
<path d="M156 100.5H108V35L116 38.5M156 67.5V56L151.5 54.0312" stroke="black" stroke-width="2" stroke-linecap="round"/>
<path d="M169.5 76H136.5V86H169.5" stroke="black" stroke-width="2" stroke-linecap="round"/>
<line x1="149" y1="80" x2="149" y2="85" stroke="black" stroke-width="2" stroke-linecap="round"/>
<line x1="160" y1="80" x2="160" y2="85" stroke="black" stroke-width="2" stroke-linecap="round"/>
<path d="M128.933 56.378C129.7 56.7679 130.268 56.8738 131.114 57.1048M123.603 51.0477C123.11 50.1891 122.677 49.5935 122.392 48.6249M122.392 40.8719C122.641 40.0245 122.951 39.4559 123.361 38.6913M128.691 33.4229C129.528 32.9742 130.179 32.6475 131.114 32.392M138.867 32.6343C139.807 32.9315 140.215 33.1096 141.048 33.6034M146.135 38.9336C146.522 39.6551 146.78 40.1754 147.025 40.9711M147.025 48.5257C146.78 49.3213 146.522 50.084 146.135 50.8055M140.805 56.1357C140.114 56.5062 139.627 56.8645 138.867 57.1048" stroke="black" stroke-width="2" stroke-linecap="round"/>
<circle cx="134.748" cy="44.7486" r="8.96446" stroke="black" stroke-width="2" stroke-linecap="round"/>
<circle cx="134.748" cy="44.7484" r="3.63424" stroke="black" stroke-width="2" stroke-linecap="round"/>
<path d="M138.867 32.6342L137.898 29H132.083L131.235 32.392" stroke="black" stroke-width="2" stroke-linecap="round"/>
<path d="M141.053 33.6034L144.067 31.7949L148.178 35.9066L146.136 38.9336" stroke="black" stroke-width="2" stroke-linecap="round"/>
<path d="M122.392 40.9931L119 41.8411L119 47.6559L122.392 48.5039" stroke="black" stroke-width="2" stroke-linecap="round"/>
<path d="M128.691 33.3973L125.735 31.6236L121.623 35.7353L123.361 38.6312" stroke="black" stroke-width="2" stroke-linecap="round"/>
<path d="M131.235 57.1049L132.083 60.4968H137.898L138.746 57.1049" stroke="black" stroke-width="2" stroke-linecap="round"/>
<path d="M123.603 51.0478L121.794 54.0667L125.906 58.1783L128.933 56.3621" stroke="black" stroke-width="2" stroke-linecap="round"/>
<path d="M147.104 40.9931L150.496 41.8411L150.496 47.6559L147.104 48.5039" stroke="black" stroke-width="2" stroke-linecap="round"/>
<path d="M140.776 56.1358L143.894 58.007L148.006 53.8953L146.135 50.7768" stroke="black" stroke-width="2" stroke-linecap="round"/>
</svg>
