<svg width="109" height="78" viewBox="0 0 109 78" fill="none" xmlns="http://www.w3.org/2000/svg">
<path d="M24.3939 52.3074L13.7802 12.6859C12.8515 9.18989 11.7901 10.8084 11.4584 12.4269L0.0485868 55.6739C-0.216758 56.5803 0.645612 57.4867 1.64065 57.2277L24.3939 52.3074Z" fill="#F7A800"/>
<path d="M12.7275 10.8682C13.0457 10.8682 13.4912 11.4472 13.873 12.9268L23.6094 50.4327L24.3094 53.1346C24.3094 53.1346 24.373 53.1346 27.1094 63.7495C29.9094 74.6217 32.2639 65.0361 32.2639 65.0361L44.5457 24.957L40.6003 11.9618C40.3457 11.1255 39.5821 10.5465 38.7548 10.6108L12.7275 10.8682Z" fill="#A6D034"/>
<path d="M53.4548 2.50607C52.3453 -1.63388 51.2357 0.242037 50.7788 1.85921L31.9164 65.0582C31.9164 65.0582 30.8721 68.8747 29.6973 68.9394L67.8791 56.2608L53.4548 2.50607Z" fill="#00A1DF"/>
<path d="M13.7881 12.7275L19.6877 53.0306L24.3941 52.0037L13.7881 12.7275Z" fill="#9C6D0A"/>
<path d="M42.3908 16.9697L44.5456 23.6039L31.8184 64.697L42.3908 16.9697Z" fill="#668622"/>
<path d="M53.0303 2.12109L61.3098 58.3332L67.8788 56.2513L53.0303 2.12109Z" fill="#01678E"/>
<path d="M108.054 66.8341L88.3924 3.61615C88.07 2.64753 87.1675 1.93722 86.1361 1.87265C78.9805 1.4852 52.0342 0 51.9697 0C52.3565 0.064574 52.8722 0.710314 53.388 2.51839L53.4524 2.77668L70.2133 67.0278L92.776 77.4242L106.829 69.9982C107.925 69.2879 108.441 67.9964 108.054 66.8341Z" fill="#F42534"/>
<path d="M92.2728 77.4241L90.3872 65.4831C90.2105 64.25 89.1499 63.4713 88.0303 63.666L86.9697 63.8607L92.2728 77.4241Z" fill="#BE142A"/>
<path d="M82.0909 60.7544L70 67.1414L92.2727 77.4243L85.5909 62.0318C85.0818 60.6267 83.4273 60.0519 82.0909 60.7544Z" fill="#F6937C"/>
</svg>
