<svg width="138" height="174" viewBox="0 0 138 174" fill="none" xmlns="http://www.w3.org/2000/svg">
<g opacity="0.7">
<mask id="path-1-outside-1_387_9506" maskUnits="userSpaceOnUse" x="-13.1548" y="-3.64724" width="164.613" height="189" fill="black">
<rect fill="white" x="-13.1548" y="-3.64724" width="164.613" height="189"/>
<path d="M121.452 100.416C121.878 96.5763 122.097 92.6042 122.089 88.515C122.057 70.2623 118.036 59.3304 113.406 54.6842C111.83 53.1033 110.196 52.2674 108.639 52.1315C107.107 51.9982 105.632 52.5507 104.355 53.7453C101.531 56.3893 99.6695 62.1183 100.156 70.526C100.789 81.4678 106.752 91.7493 113.63 96.9588C116.023 98.771 118.523 99.9635 120.937 100.346C121.109 100.373 121.281 100.397 121.452 100.416ZM83.0186 157.87C65.439 115.507 45.9319 95.1158 30.4862 88.543C22.9593 85.3399 16.4181 85.4361 11.5634 87.8731C6.72678 90.3027 3.55251 95.0722 2.74786 101.223C1.36386 111.799 6.95697 126.431 23.0451 140.368C28.7257 145.289 34.9945 149.548 41.5552 152.825C51.7746 157.93 62.7034 160.656 73.2233 159.794C76.5407 159.523 79.8172 158.894 83.0188 157.871L83.0186 157.87ZM89.2002 171.767C89.2663 171.952 89.1654 172.155 88.9749 172.221C88.7829 172.287 88.5732 172.192 88.5073 172.009C86.7929 167.287 85.0508 162.798 83.2902 158.528C80.0187 159.577 76.6693 160.222 73.2792 160.499C62.6151 161.371 51.549 158.616 41.2117 153.452C34.5939 150.147 28.2751 145.854 22.5504 140.895C6.26362 126.787 0.610855 111.916 2.02098 101.141C2.85686 94.7487 6.17349 89.7851 11.232 87.2435C16.2758 84.7103 23.0389 84.5979 30.788 87.8942C46.3791 94.5287 66.0482 115.05 83.7177 157.638C90.4008 155.375 96.7431 151.371 102.426 145.275C105.869 141.583 109.07 137.122 111.958 131.819C115.224 125.822 117.8 119.044 119.537 111.62C120.327 108.248 120.943 104.743 121.372 101.118C121.187 101.098 121 101.071 120.813 101.042C118.276 100.639 115.665 99.3973 113.177 97.513C106.157 92.195 100.07 81.7144 99.4256 70.5704C98.9264 61.9378 100.884 56.0106 103.849 53.2344C105.285 51.8896 106.96 51.27 108.714 51.4211C110.444 51.5712 112.238 52.4788 113.94 54.1859C118.68 58.9408 122.795 70.0453 122.828 88.5017C122.836 92.6126 122.616 96.6063 122.188 100.466C124.125 100.543 125.987 100.063 127.669 98.9155C131.299 96.4411 134.123 90.8859 135.133 81.2247C136.081 72.1332 134.951 53.8055 126.5 35.5703C120.894 23.4742 112.063 11.4209 98.4777 2.14154C98.3134 2.02875 98.2757 1.80902 98.3944 1.64925C98.5131 1.48948 98.7412 1.4507 98.9054 1.56349C112.612 10.9235 121.519 23.0797 127.172 35.2768C135.682 53.642 136.819 72.1184 135.858 81.2922C134.823 91.184 131.878 96.9086 128.081 99.4975C126.242 100.75 124.211 101.273 122.102 101.178C121.671 104.835 121.05 108.37 120.253 111.771C118.502 119.251 115.903 126.087 112.605 132.146C109.685 137.505 106.449 142.014 102.967 145.75C97.2036 151.932 90.7695 155.998 83.9882 158.3C85.747 162.569 87.4869 167.054 89.2007 171.77L89.2002 171.767Z"/>
</mask>
<path d="M121.452 100.416C121.878 96.5763 122.097 92.6042 122.089 88.515C122.057 70.2623 118.036 59.3304 113.406 54.6842C111.83 53.1033 110.196 52.2674 108.639 52.1315C107.107 51.9982 105.632 52.5507 104.355 53.7453C101.531 56.3893 99.6695 62.1183 100.156 70.526C100.789 81.4678 106.752 91.7493 113.63 96.9588C116.023 98.771 118.523 99.9635 120.937 100.346C121.109 100.373 121.281 100.397 121.452 100.416ZM83.0186 157.87C65.439 115.507 45.9319 95.1158 30.4862 88.543C22.9593 85.3399 16.4181 85.4361 11.5634 87.8731C6.72678 90.3027 3.55251 95.0722 2.74786 101.223C1.36386 111.799 6.95697 126.431 23.0451 140.368C28.7257 145.289 34.9945 149.548 41.5552 152.825C51.7746 157.93 62.7034 160.656 73.2233 159.794C76.5407 159.523 79.8172 158.894 83.0188 157.871L83.0186 157.87ZM89.2002 171.767C89.2663 171.952 89.1654 172.155 88.9749 172.221C88.7829 172.287 88.5732 172.192 88.5073 172.009C86.7929 167.287 85.0508 162.798 83.2902 158.528C80.0187 159.577 76.6693 160.222 73.2792 160.499C62.6151 161.371 51.549 158.616 41.2117 153.452C34.5939 150.147 28.2751 145.854 22.5504 140.895C6.26362 126.787 0.610855 111.916 2.02098 101.141C2.85686 94.7487 6.17349 89.7851 11.232 87.2435C16.2758 84.7103 23.0389 84.5979 30.788 87.8942C46.3791 94.5287 66.0482 115.05 83.7177 157.638C90.4008 155.375 96.7431 151.371 102.426 145.275C105.869 141.583 109.07 137.122 111.958 131.819C115.224 125.822 117.8 119.044 119.537 111.62C120.327 108.248 120.943 104.743 121.372 101.118C121.187 101.098 121 101.071 120.813 101.042C118.276 100.639 115.665 99.3973 113.177 97.513C106.157 92.195 100.07 81.7144 99.4256 70.5704C98.9264 61.9378 100.884 56.0106 103.849 53.2344C105.285 51.8896 106.96 51.27 108.714 51.4211C110.444 51.5712 112.238 52.4788 113.94 54.1859C118.68 58.9408 122.795 70.0453 122.828 88.5017C122.836 92.6126 122.616 96.6063 122.188 100.466C124.125 100.543 125.987 100.063 127.669 98.9155C131.299 96.4411 134.123 90.8859 135.133 81.2247C136.081 72.1332 134.951 53.8055 126.5 35.5703C120.894 23.4742 112.063 11.4209 98.4777 2.14154C98.3134 2.02875 98.2757 1.80902 98.3944 1.64925C98.5131 1.48948 98.7412 1.4507 98.9054 1.56349C112.612 10.9235 121.519 23.0797 127.172 35.2768C135.682 53.642 136.819 72.1184 135.858 81.2922C134.823 91.184 131.878 96.9086 128.081 99.4975C126.242 100.75 124.211 101.273 122.102 101.178C121.671 104.835 121.05 108.37 120.253 111.771C118.502 119.251 115.903 126.087 112.605 132.146C109.685 137.505 106.449 142.014 102.967 145.75C97.2036 151.932 90.7695 155.998 83.9882 158.3C85.747 162.569 87.4869 167.054 89.2007 171.77L89.2002 171.767Z" fill="#F2A900"/>
<path d="M122.089 88.515L121.089 88.5167L121.089 88.5169L122.089 88.515ZM113.406 54.6842L114.115 53.9783L114.114 53.9782L113.406 54.6842ZM108.639 52.1315L108.726 51.1353L108.726 51.1353L108.639 52.1315ZM104.355 53.7453L103.672 53.0149L103.672 53.0153L104.355 53.7453ZM100.156 70.526L99.1575 70.5837L99.1575 70.5837L100.156 70.526ZM113.63 96.9588L114.234 96.1617L114.234 96.1616L113.63 96.9588ZM120.937 100.346L120.78 101.334L120.783 101.334L120.937 100.346ZM83.0186 157.87L84.0076 157.722L83.9894 157.6L83.9422 157.486L83.0186 157.87ZM30.4862 88.543L30.0947 89.4631L30.4862 88.543ZM11.5634 87.8731L11.1147 86.9794L11.1145 86.9795L11.5634 87.8731ZM2.74786 101.223L3.73941 101.353L3.73941 101.353L2.74786 101.223ZM23.0451 140.368L23.6999 139.612L23.6999 139.612L23.0451 140.368ZM41.5552 152.825L42.002 151.93L42.002 151.93L41.5552 152.825ZM73.2233 159.794L73.1419 158.798L73.1417 158.798L73.2233 159.794ZM83.0188 157.871L83.3231 158.824L84.1338 158.565L84.0078 157.723L83.0188 157.871ZM89.2002 171.767L90.1417 171.43L88.2112 171.915L89.2002 171.767ZM88.9749 172.221L89.299 173.167L89.3004 173.167L88.9749 172.221ZM88.5073 172.009L89.4483 171.67L89.4473 171.667L88.5073 172.009ZM83.2902 158.528L84.2147 158.147L83.8632 157.295L82.985 157.576L83.2902 158.528ZM73.2792 160.499L73.3607 161.496L73.3607 161.496L73.2792 160.499ZM41.2117 153.452L41.6586 152.558L41.6585 152.558L41.2117 153.452ZM22.5504 140.895L23.2052 140.139L23.2051 140.139L22.5504 140.895ZM2.02098 101.141L3.01252 101.271L3.01254 101.27L2.02098 101.141ZM11.232 87.2435L10.7832 86.3499L10.7831 86.35L11.232 87.2435ZM30.788 87.8942L31.1796 86.9741L31.1795 86.974L30.788 87.8942ZM83.7177 157.638L82.7941 158.022L83.1525 158.886L84.0385 158.586L83.7177 157.638ZM102.426 145.275L101.695 144.593L101.695 144.594L102.426 145.275ZM111.958 131.819L112.836 132.298L112.836 132.298L111.958 131.819ZM119.537 111.62L118.563 111.392L118.563 111.392L119.537 111.62ZM121.372 101.118L122.366 101.235L122.484 100.232L121.48 100.123L121.372 101.118ZM120.813 101.042L120.656 102.03L120.659 102.03L120.813 101.042ZM113.177 97.513L112.573 98.3101L112.573 98.3102L113.177 97.513ZM99.4256 70.5704L100.424 70.5127L99.4256 70.5704ZM103.849 53.2344L104.533 53.9644L104.533 53.9643L103.849 53.2344ZM108.714 51.4211L108.8 50.4248L108.8 50.4248L108.714 51.4211ZM113.94 54.1859L114.649 53.48L114.649 53.4798L113.94 54.1859ZM122.828 88.5017L121.828 88.5035L121.828 88.5037L122.828 88.5017ZM122.188 100.466L121.194 100.356L121.076 101.422L122.148 101.465L122.188 100.466ZM127.669 98.9155L127.106 98.0892L127.106 98.0894L127.669 98.9155ZM135.133 81.2247L136.128 81.3287L136.128 81.3284L135.133 81.2247ZM126.5 35.5703L127.407 35.1499L127.407 35.1498L126.5 35.5703ZM98.4777 2.14154L97.9117 2.96593L97.9137 2.9673L98.4777 2.14154ZM98.9054 1.56349L98.3394 2.38788L98.3415 2.38931L98.9054 1.56349ZM127.172 35.2768L128.079 34.8563L128.079 34.8563L127.172 35.2768ZM135.858 81.2922L134.863 81.188L134.863 81.1882L135.858 81.2922ZM128.081 99.4975L128.644 100.324L128.645 100.324L128.081 99.4975ZM122.102 101.178L122.147 100.179L121.218 100.137L121.109 101.061L122.102 101.178ZM120.253 111.771L119.28 111.543L119.28 111.543L120.253 111.771ZM112.605 132.146L113.483 132.624L113.483 132.624L112.605 132.146ZM102.967 145.75L103.698 146.432L103.698 146.432L102.967 145.75ZM83.9882 158.3L83.6667 157.353L82.6577 157.696L83.0636 158.681L83.9882 158.3ZM89.2007 171.77L88.2608 172.112L90.1896 171.622L89.2007 171.77ZM122.446 100.526C122.876 96.6489 123.098 92.6393 123.089 88.513L121.089 88.5169C121.097 92.5692 120.88 96.5037 120.458 100.305L122.446 100.526ZM123.089 88.5132C123.056 70.1873 119.032 58.9132 114.115 53.9783L112.698 55.3901C117.04 59.7476 121.057 70.3373 121.089 88.5167L123.089 88.5132ZM114.114 53.9782C112.425 52.2839 110.583 51.2974 108.726 51.1353L108.552 53.1277C109.809 53.2374 111.235 53.9227 112.698 55.3902L114.114 53.9782ZM108.726 51.1353C106.873 50.974 105.127 51.6546 103.672 53.0149L105.038 54.4757C106.138 53.4469 107.341 53.0223 108.553 53.1278L108.726 51.1353ZM103.672 53.0153C100.521 55.9651 98.6653 62.0733 99.1575 70.5837L101.154 70.4682C100.674 62.1633 102.541 56.8135 105.038 54.4753L103.672 53.0153ZM99.1575 70.5837C99.8076 81.813 105.91 92.3668 113.027 97.756L114.234 96.1616C107.593 91.1319 101.771 81.1226 101.154 70.4682L99.1575 70.5837ZM113.027 97.756C115.51 99.6372 118.16 100.919 120.78 101.334L121.093 99.3586C118.885 99.0085 116.535 97.9049 114.234 96.1617L113.027 97.756ZM120.783 101.334C120.966 101.363 121.152 101.389 121.34 101.41L121.563 99.422C121.409 99.4047 121.251 99.383 121.09 99.358L120.783 101.334ZM83.9422 157.486C66.3272 115.038 46.6846 94.3494 30.8778 87.6228L30.0947 89.4631C45.1792 95.8823 64.5508 115.976 82.095 158.253L83.9422 157.486ZM30.8778 87.6228C23.1577 84.3376 16.2988 84.3771 11.1147 86.9794L12.012 88.7668C16.5374 86.4951 22.7609 86.3423 30.0947 89.4631L30.8778 87.6228ZM11.1145 86.9795C5.93826 89.5798 2.59729 94.6647 1.75631 101.094L3.73941 101.353C4.50773 95.4796 7.5153 91.0257 12.0123 88.7667L11.1145 86.9795ZM1.75632 101.094C0.313338 112.12 6.15356 127.059 22.3904 141.124L23.6999 139.612C7.76038 125.804 2.41441 111.478 3.73941 101.353L1.75632 101.094ZM22.3904 141.124C28.1291 146.096 34.467 150.403 41.1083 153.72L42.002 151.93C35.522 148.694 29.3224 144.483 23.6999 139.612L22.3904 141.124ZM41.1083 153.72C51.448 158.884 62.56 161.671 73.305 160.791L73.1417 158.798C62.8468 159.641 52.1013 156.975 42.002 151.93L41.1083 153.72ZM73.3048 160.791C76.6944 160.514 80.0459 159.87 83.3231 158.824L82.7146 156.919C79.5885 157.917 76.3869 158.532 73.1419 158.798L73.3048 160.791ZM84.0078 157.723L84.0076 157.722L82.0296 158.018L82.0298 158.019L84.0078 157.723ZM88.2587 172.104C88.1287 171.741 88.3368 171.383 88.6494 171.275L89.3004 173.167C89.9939 172.928 90.4038 172.163 90.1417 171.43L88.2587 172.104ZM88.6508 171.275C88.9375 171.177 89.3159 171.302 89.4483 171.67L87.5664 172.347C87.8305 173.081 88.6283 173.397 89.299 173.167L88.6508 171.275ZM89.4473 171.667C87.7281 166.933 85.9808 162.43 84.2147 158.147L82.3657 158.909C84.1208 163.166 85.8577 167.642 87.5674 172.35L89.4473 171.667ZM82.985 157.576C79.7894 158.6 76.5152 159.231 73.1976 159.502L73.3607 161.496C76.8233 161.212 80.2481 160.553 83.5954 159.481L82.985 157.576ZM73.1976 159.502C62.7581 160.356 51.8751 157.661 41.6586 152.558L40.7648 154.347C51.2228 159.571 62.4721 162.387 73.3607 161.496L73.1976 159.502ZM41.6585 152.558C35.1213 149.293 28.8718 145.048 23.2052 140.139L21.8956 141.65C27.6785 146.66 34.0664 151.001 40.7649 154.347L41.6585 152.558ZM23.2051 140.139C7.06931 126.162 1.66109 111.597 3.01252 101.271L1.02943 101.011C-0.439397 112.235 5.45792 127.412 21.8957 141.65L23.2051 140.139ZM3.01254 101.27C3.81172 95.159 6.95977 90.5092 11.681 88.1371L10.7831 86.35C5.38721 89.061 1.90201 94.3384 1.02943 101.011L3.01254 101.27ZM11.6808 88.1371C16.3975 85.7682 22.8435 85.6015 30.3966 88.8145L31.1795 86.974C23.2343 83.5943 16.1541 83.6524 10.7832 86.3499L11.6808 88.1371ZM30.3965 88.8144C45.6272 95.2955 65.1606 115.52 82.7941 158.022L84.6414 157.255C66.9359 114.58 47.131 93.7619 31.1796 86.9741L30.3965 88.8144ZM84.0385 158.586C90.8851 156.267 97.3667 152.169 103.158 145.957L101.695 144.594C96.1196 150.574 89.9165 154.484 83.397 156.691L84.0385 158.586ZM103.158 145.957C106.664 142.197 109.913 137.666 112.836 132.298L111.08 131.341C108.228 136.578 105.075 140.969 101.695 144.593L103.158 145.957ZM112.836 132.298C116.148 126.216 118.754 119.354 120.511 111.848L118.563 111.392C116.845 118.734 114.3 125.427 111.08 131.341L112.836 132.298ZM120.511 111.848C121.309 108.439 121.931 104.897 122.366 101.235L120.379 101C119.954 104.589 119.344 108.057 118.563 111.392L120.511 111.848ZM121.48 100.123C121.315 100.106 121.145 100.082 120.967 100.054L120.659 102.03C120.856 102.061 121.059 102.09 121.265 102.112L121.48 100.123ZM120.97 100.055C118.637 99.6843 116.176 98.53 113.78 96.7158L112.573 98.3102C115.154 100.265 117.915 101.595 120.656 102.03L120.97 100.055ZM113.78 96.7159C106.997 91.5771 101.052 81.3683 100.424 70.5127L98.4273 70.6282C99.0883 82.0605 105.316 92.8129 112.573 98.3101L113.78 96.7159ZM100.424 70.5127C99.9312 61.9915 101.891 56.4383 104.533 53.9644L103.166 52.5045C99.8781 55.5829 97.9216 61.8841 98.4273 70.6282L100.424 70.5127ZM104.533 53.9643C105.787 52.79 107.189 52.2935 108.628 52.4174L108.8 50.4248C106.73 50.2466 104.784 50.9891 103.166 52.5046L104.533 53.9643ZM108.628 52.4174C110.063 52.5418 111.648 53.3036 113.232 54.892L114.649 53.4798C112.828 51.6541 110.826 50.6005 108.8 50.4248L108.628 52.4174ZM113.232 54.8919C117.685 59.3597 121.795 70.1244 121.828 88.5035L123.828 88.4999C123.795 69.9662 119.674 58.522 114.649 53.48L113.232 54.8919ZM121.828 88.5037C121.836 92.5778 121.618 96.5339 121.194 100.356L123.182 100.576C123.615 96.6786 123.836 92.6474 123.828 88.4997L121.828 88.5037ZM122.148 101.465C124.287 101.551 126.362 101.017 128.232 99.7417L127.106 98.0894C125.612 99.1081 123.964 99.5362 122.228 99.4669L122.148 101.465ZM128.232 99.7418C132.233 97.0145 135.108 91.0817 136.128 81.3287L134.138 81.1208C133.138 90.6901 130.365 95.8677 127.106 98.0892L128.232 99.7418ZM136.128 81.3284C137.092 72.0766 135.941 53.5654 127.407 35.1499L125.593 35.9908C133.96 54.0457 135.069 72.1897 134.138 81.1211L136.128 81.3284ZM127.407 35.1498C121.739 22.9186 112.8 10.7131 99.0417 1.31578L97.9137 2.9673C111.326 12.1287 120.049 24.0298 125.593 35.9908L127.407 35.1498ZM99.0437 1.31715C99.3417 1.52174 99.4202 1.94531 99.1972 2.24551L97.5916 1.053C97.1313 1.67274 97.2852 2.53575 97.9117 2.96592L99.0437 1.31715ZM99.1972 2.24551C98.9971 2.51487 98.6212 2.58137 98.3394 2.38788L99.4715 0.739106C98.8611 0.320038 98.029 0.464088 97.5916 1.053L99.1972 2.24551ZM98.3415 2.38931C111.875 11.6314 120.674 23.6354 126.265 35.6973L128.079 34.8563C122.364 22.5239 113.349 10.2157 99.4694 0.737679L98.3415 2.38931ZM126.265 35.6972C134.691 53.8819 135.807 72.1745 134.863 81.188L136.852 81.3964C137.83 72.0623 136.673 53.402 128.079 34.8563L126.265 35.6972ZM134.863 81.1882C133.839 90.9799 130.948 96.3324 127.518 98.6713L128.645 100.324C132.808 97.4847 135.807 91.3882 136.852 81.3963L134.863 81.1882ZM127.518 98.6709C125.867 99.7955 124.051 100.265 122.147 100.179L122.057 102.177C124.37 102.281 126.617 101.704 128.644 100.324L127.518 98.6709ZM121.109 101.061C120.682 104.681 120.067 108.179 119.28 111.543L121.227 111.999C122.032 108.56 122.66 104.988 123.096 101.295L121.109 101.061ZM119.28 111.543C117.547 118.941 114.979 125.693 111.726 131.667L113.483 132.624C116.827 126.482 119.457 119.56 121.227 111.999L119.28 111.543ZM111.726 131.667C108.843 136.961 105.655 141.4 102.235 145.068L103.698 146.432C107.244 142.628 110.528 138.049 113.483 132.624L111.726 131.667ZM102.235 145.068C96.5799 151.135 90.2849 155.106 83.6667 157.353L84.3097 159.247C91.2542 156.889 97.8273 152.73 103.698 146.432L102.235 145.068ZM83.0636 158.681C84.8169 162.937 86.5517 167.408 88.2608 172.112L90.1405 171.429C88.4221 166.699 86.6771 162.201 84.9128 157.919L83.0636 158.681ZM90.1896 171.622L90.1892 171.619L88.2112 171.915L88.2117 171.918L90.1896 171.622Z" fill="#F2A900" mask="url(#path-1-outside-1_387_9506)"/>
</g>
</svg>
