<svg width="102" height="88" viewBox="0 0 102 88" fill="none" xmlns="http://www.w3.org/2000/svg">
<circle cx="21.8193" cy="39.1779" r="2" fill="#A4D233"/>
<path d="M47.4538 17.6254C52.3447 15.1902 57.8595 13.8207 63.6941 13.8207C83.8445 13.8207 100.18 30.1558 100.18 50.3062C100.18 70.4565 83.8445 86.7916 63.6941 86.7916C53.7206 86.7916 44.6818 82.7899 38.0957 76.3045" stroke="black" stroke-width="2" stroke-linecap="round"/>
<path d="M68.4791 14.9173V8.63696H58.9092V14.9173" stroke="black" stroke-width="2"/>
<rect x="52.7285" y="1.75854" width="21.9312" height="6.87841" rx="2" stroke="black" stroke-width="2" stroke-linejoin="round"/>
<path d="M84.6541 21.2555L88.572 16.8189C90.0343 15.163 92.5621 15.0061 94.218 16.4684L95.4695 17.5736C97.1254 19.0359 97.2823 21.5637 95.82 23.2196L91.6515 27.9399" stroke="black" stroke-width="2" stroke-linejoin="round"/>
<circle cx="63.6943" cy="50.3061" r="7.47653" stroke="black" stroke-width="2" stroke-linejoin="round"/>
<path d="M65.8152 42.8791L69.9537 39.9594C72.8001 37.9514 76.2068 41.5918 74.0145 44.2989L71.1126 47.8821" stroke="black" stroke-width="2"/>
<line x1="64.6943" y1="14.8207" x2="64.6943" y2="21.4501" stroke="black" stroke-width="2" stroke-linecap="round"/>
<line x1="64.6943" y1="78.3553" x2="64.6943" y2="84.9848" stroke="black" stroke-width="2" stroke-linecap="round"/>
<line x1="82.1014" y1="20.4241" x2="78.7866" y2="26.1654" stroke="black" stroke-width="2" stroke-linecap="round"/>
<line x1="50.3338" y1="75.4463" x2="47.0191" y2="81.1876" stroke="black" stroke-width="2" stroke-linecap="round"/>
<line x1="88.8348" y1="63.6662" x2="94.5761" y2="66.9809" stroke="black" stroke-width="2" stroke-linecap="round"/>
<line x1="94.5764" y1="33.6312" x2="88.8351" y2="36.9459" stroke="black" stroke-width="2" stroke-linecap="round"/>
<line x1="78.7869" y1="74.4468" x2="82.1017" y2="80.1881" stroke="black" stroke-width="2" stroke-linecap="round"/>
<line x1="92.1465" y1="49.3062" x2="98.7759" y2="49.3062" stroke="black" stroke-width="2" stroke-linecap="round"/>
<line x1="48.0645" y1="27.5316" x2="22.575" y2="27.5316" stroke="black" stroke-width="2" stroke-linecap="round"/>
<line x1="42.5322" y1="39.4691" x2="26.587" y2="39.4691" stroke="black" stroke-width="2" stroke-linecap="round"/>
<line x1="17.125" y1="39.4691" x2="1.17976" y2="39.4691" stroke="black" stroke-width="2" stroke-linecap="round"/>
<line x1="38.9668" y1="51.4066" x2="12.2082" y2="51.4066" stroke="black" stroke-width="2" stroke-linecap="round"/>
<line x1="38.9668" y1="63.3441" x2="20.4213" y2="63.3441" stroke="black" stroke-width="2" stroke-linecap="round"/>
</svg>
