<svg width="101" height="101" viewBox="0 0 101 101" fill="none" xmlns="http://www.w3.org/2000/svg">
<line x1="75.8691" y1="19.9395" x2="75.8691" y2="8.92431" stroke="black" stroke-width="1.5" stroke-linecap="round"/>
<line x1="58.2626" y1="26.5679" x2="50.4737" y2="18.779" stroke="black" stroke-width="1.5" stroke-linecap="round"/>
<line x1="97.7236" y1="18.6212" x2="89.9347" y2="26.4101" stroke="black" stroke-width="1.5" stroke-linecap="round"/>
<circle cx="56.1855" cy="38.1167" r="2" fill="#F2A900"/>
<path d="M66.7503 74.0798C66.8186 73.4448 67.3545 72.9634 67.9932 72.9634H81.2147C81.8534 72.9634 82.3893 73.4448 82.4576 74.0798L83.3014 81.9283C83.3808 82.6673 82.8018 83.3119 82.0585 83.3119H67.1494C66.4061 83.3119 65.8271 82.6673 65.9065 81.9283L66.7503 74.0798Z" stroke="black" stroke-width="1.5"/>
<path fill-rule="evenodd" clip-rule="evenodd" d="M74.6044 27.1299C68.7051 27.1299 63.4397 29.8912 59.9987 34.2161C59.7408 34.5402 59.269 34.5939 58.9449 34.336C58.6207 34.0781 58.567 33.6063 58.8249 33.2821C62.5354 28.6185 68.2244 25.6299 74.6044 25.6299C85.8014 25.6299 94.8612 34.8273 94.8612 46.1514C94.8612 50.184 93.7123 53.9475 91.727 57.1214C91.679 57.1981 91.6195 57.2631 91.5521 57.3156C90.9992 58.147 90.2788 59.0345 89.5096 59.937C89.1184 60.396 88.7189 60.8541 88.3164 61.3156C87.7435 61.9725 87.1646 62.6363 86.5949 63.3196C85.6363 64.4695 84.7637 65.6055 84.124 66.6906C83.4788 67.7851 83.1117 68.7599 83.0818 69.5969C83.067 70.0109 82.7195 70.3345 82.3055 70.3197C81.8916 70.3049 81.568 69.9573 81.5828 69.5434C81.6257 68.3415 82.1353 67.1104 82.8318 65.9288C83.5339 64.738 84.4682 63.5281 85.4428 62.3591C86.0149 61.6728 86.6222 60.9762 87.2094 60.3026C87.6108 59.8421 88.0029 59.3924 88.368 58.964C89.2904 57.8818 90.0707 56.9022 90.5771 56.051C90.6206 55.9779 90.6746 55.9149 90.736 55.8627C92.4032 53.021 93.3612 49.7009 93.3612 46.1514C93.3612 35.6366 84.954 27.1299 74.6044 27.1299ZM55.2241 43.766C55.637 43.7994 55.9446 44.1612 55.9112 44.5741C55.8691 45.0941 55.8477 45.6201 55.8477 46.1514C55.8477 49.8956 56.9136 53.3845 58.7536 56.326C58.7944 56.3912 58.8239 56.4603 58.8427 56.531C59.3429 57.2927 60.0372 58.1483 60.8389 59.081C61.204 59.5057 61.596 59.9516 61.9974 60.4082L61.9976 60.4085L61.9979 60.4087C62.585 61.0765 63.1922 61.7671 63.7642 62.4474C64.7388 63.6065 65.6734 64.8065 66.3757 65.9878C67.0724 67.1595 67.5832 68.3821 67.6262 69.5768C67.6411 69.9908 67.3177 70.3385 66.9037 70.3534C66.4898 70.3683 66.1421 70.0448 66.1272 69.6309C66.0974 68.804 65.7315 67.8393 65.0864 66.7544C64.447 65.679 63.5747 64.5528 62.6161 63.4128C62.0465 62.7354 61.4678 62.0774 60.895 61.4262L60.8948 61.4259C60.4922 60.9683 60.0927 60.514 59.7014 60.0588C58.7766 58.9829 57.9218 57.9281 57.3442 56.9653C57.3039 56.8982 57.2754 56.8273 57.2579 56.755C55.4104 53.6595 54.3477 50.0299 54.3477 46.1514C54.3477 45.5797 54.3708 45.0133 54.4161 44.4531C54.4495 44.0403 54.8112 43.7326 55.2241 43.766Z" fill="black"/>
<line x1="64.5166" y1="78.6885" x2="84.6908" y2="78.6885" stroke="black" stroke-width="1.5" stroke-linecap="round"/>
<path d="M70.7305 84.4807C70.7305 83.8663 71.2286 83.3682 71.843 83.3682H78.2325C78.847 83.3682 79.3451 83.8663 79.3451 84.4807C79.3451 86.6381 77.5961 88.3871 75.4387 88.3871H74.6368C72.4794 88.3871 70.7305 86.6381 70.7305 84.4807Z" stroke="black" stroke-width="1.5"/>
<path d="M72.8699 70.7408V49.3556C72.7735 48.2478 72.1763 46.0322 70.558 46.0322C68.535 46.0322 68.1016 46.6102 68.1016 48.4886C68.1016 50.3671 68.2461 51.523 70.558 51.523C72.4075 51.523 74.3148 51.523 75.0373 51.523" stroke="black" stroke-width="1.5"/>
<path d="M76.3381 70.7408V49.3556C76.4345 48.2478 77.0317 46.0322 78.65 46.0322C80.673 46.0322 81.1064 46.6102 81.1064 48.4886C81.1064 50.3671 80.962 51.523 78.65 51.523C76.8005 51.523 74.8932 51.523 74.1707 51.523" stroke="black" stroke-width="1.5"/>
<circle cx="6.77798" cy="58.3858" r="3.27377" transform="rotate(90 6.77798 58.3858)" stroke="black" stroke-width="1.5" stroke-linecap="round"/>
<line x1="10.6182" y1="58.8286" x2="49.2311" y2="58.8286" stroke="black" stroke-width="1.5" stroke-linecap="round"/>
<path d="M44.9717 52.8845L50.4736 58.3864L44.9717 63.8883" stroke="black" stroke-width="1.5" stroke-linecap="round"/>
</svg>
