<svg width="101" height="101" viewBox="0 0 101 101" fill="none" xmlns="http://www.w3.org/2000/svg">
<g clip-path="url(#clip0_36_231)">
<path d="M18.7852 19.9007H21.6878V1.52478H18.7852" stroke="black" stroke-width="1.5" stroke-linecap="round" stroke-linejoin="round"/>
<path d="M56.7802 33.3538C58.2895 33.0153 59.4216 31.6709 59.4216 30.0558V17.3474C59.4216 16.4963 59.141 15.6646 58.6185 14.9876L51.1975 5.34505C50.2783 4.15546 48.8657 3.45911 47.366 3.45911H21.6875" stroke="black" stroke-width="1.5" stroke-linecap="round" stroke-linejoin="round"/>
<path d="M52.6488 29.5721V19.9006L48.7786 15.0648H42.9734C41.9091 15.0648 41.0383 15.9353 41.0383 16.9991V20.8677L48.082 28.8564C49.4462 30.4909 49.2334 32.9378 47.6079 34.3112C45.9728 35.6748 43.5249 35.4621 42.151 33.8372L34.2655 24.746C31.3629 24.746 26.5252 22.8117 24.5901 17.0088H21.6875" stroke="black" stroke-width="1.5" stroke-linecap="round" stroke-linejoin="round"/>
<path d="M42.6543 45.4498C38.5422 38.6024 29.1571 36.9679 26.6028 41.4362C21.7167 50.0051 29.2732 60.1505 29.2732 60.1505" stroke="black" stroke-width="1.5" stroke-linecap="round" stroke-linejoin="round"/>
<path d="M58.3965 45.4498C62.5085 38.6024 71.8937 36.9679 74.448 41.4362M71.7776 60.1505C71.7776 60.1505 75.4081 55.2762 76.009 49.4311" stroke="black" stroke-width="1.5" stroke-linecap="round" stroke-linejoin="round"/>
<path d="M44.1582 54.2894C44.1582 54.9432 43.628 55.4737 42.9732 55.4737C42.3184 55.4737 41.7881 54.9432 41.7881 54.2894C41.7881 53.6356 42.3184 53.1051 42.9732 53.1051C43.628 53.1051 44.1582 53.6356 44.1582 54.2894Z" stroke="black" stroke-width="1.5" stroke-linecap="round"/>
<path d="M59.6387 54.2897C59.6387 54.9434 59.1084 55.474 58.4536 55.474C57.7988 55.474 57.2686 54.9434 57.2686 54.2897C57.2686 53.6359 57.7988 53.1053 58.4536 53.1053C59.1084 53.1053 59.6387 53.6359 59.6387 54.2897Z" stroke="black" stroke-width="1.5" stroke-linecap="round"/>
<path d="M48.7793 29.8592C49.3888 29.6775 50.0371 29.5723 50.7144 29.5723C54.4588 29.5723 57.4872 32.5657 57.4872 36.2669C57.4872 37.491 57.1485 38.6387 56.5583 39.6333" stroke="black" stroke-width="1.5" stroke-linecap="round" stroke-linejoin="round"/>
<path d="M44.0478 35.129C43.9801 35.502 43.9414 35.875 43.9414 36.2671C43.9414 37.5678 44.3187 38.7824 44.9767 39.8057" stroke="black" stroke-width="1.5" stroke-linecap="round" stroke-linejoin="round"/>
<circle cx="75.666" cy="45.115" r="2" fill="#EE2737"/>
<path d="M25.9512 54.1334C23.6513 58.1162 22.3418 62.6988 22.3418 67.5749C22.3418 76.6027 26.8305 84.6243 33.7829 89.6964M40.0041 41.9913C43.4689 40.5833 47.2789 39.8046 51.2784 39.8046C54.9225 39.8046 58.4093 40.451 61.621 41.631M75.5757 52.4871C78.5106 56.8312 80.2149 62.012 80.2149 67.5749C80.2149 76.6027 75.7262 84.6243 68.7738 89.6964M46.7315 95.0044C48.2128 95.2287 49.7314 95.3452 51.2784 95.3452C52.8253 95.3452 54.3439 95.2287 55.8252 95.0044" stroke="black" stroke-width="1.5" stroke-linecap="round"/>
<path d="M33.8457 89.4896V96.0252C33.8457 97.6821 35.1889 99.0252 36.8457 99.0252H43.9271C45.584 99.0252 46.9271 97.6821 46.9271 96.0252V94.9266" stroke="black" stroke-width="1.5"/>
<path d="M55.6299 95.2614V96.0255C55.6299 97.6823 56.973 99.0255 58.6299 99.0255H65.7113C67.3681 99.0255 68.7113 97.6823 68.7113 96.0255V89.9081" stroke="black" stroke-width="1.5" stroke-linecap="round"/>
<path d="M58.3821 67.4811C58.3821 71.7424 54.9475 75.1899 50.7194 75.1899C46.4912 75.1899 43.0566 71.7424 43.0566 67.4811C43.0566 63.2197 46.4912 59.7722 50.7194 59.7722C54.9475 59.7722 58.3821 63.2197 58.3821 67.4811Z" stroke="black" stroke-width="1.5"/>
<path d="M47.2188 82.2854C48.2845 82.7766 49.4699 83.0503 50.7189 83.0503C51.9679 83.0503 53.1533 82.7766 54.2191 82.2854" stroke="black" stroke-width="1.5" stroke-linecap="round"/>
<line x1="48.1953" y1="65.9309" x2="48.1953" y2="69.0314" stroke="black" stroke-width="1.5" stroke-linecap="round"/>
<line x1="53.0693" y1="65.9309" x2="53.0693" y2="69.0314" stroke="black" stroke-width="1.5" stroke-linecap="round"/>
</g>
<defs>
<clipPath id="clip0_36_231">
<rect width="100" height="100" fill="white" transform="translate(0.850586 0.275146)"/>
</clipPath>
</defs>
</svg>
