<svg width="101" height="92" viewBox="0 0 101 92" fill="none" xmlns="http://www.w3.org/2000/svg">
<path d="M86.5562 53.233L92.692 47.1301C103.267 36.6115 98.0383 22.4009 89.5193 13.2779C86.7112 10.2694 83.504 7.66402 80.182 5.80797C75.855 3.39139 62.2883 -0.146256 53.4162 8.45334L35.0028 26.705C30.0327 31.6325 42.5743 36.397 48.9227 30.1683L53.5626 25.6154C60.4163 19.4266 69.0272 31.8298 79.7599 23.3932M14.8811 50.3474L8.75383 44.2531C1.45532 36.9948 1.28438 27.876 5.02443 20.0722M48.5494 13.2693L44.4205 9.17689C35.7876 0.805818 24.6137 1.97339 15.9907 7.65295M63.3622 30.0396L87.073 54.7974C91.9139 59.8507 84.7272 69.4742 78.5138 63.0938L67.3992 51.6801M57.7144 59.3703L69.9316 71.8707C74.8242 76.8755 84.7243 69.4742 78.5138 63.091L66.5723 50.8193M54.0019 73.1834L60.1033 79.3121C65.0419 84.2711 74.629 77.1929 68.4701 70.7497" stroke="black" stroke-width="2" stroke-linecap="round" stroke-linejoin="round"/>
<path d="M29.4241 45.3226L30.0759 45.9718C32.2781 48.1653 32.2724 51.7716 30.0759 53.9622L21.6315 62.3759C19.435 64.5637 15.8115 64.5694 13.6092 62.3759L12.9575 61.7267C10.7552 59.5332 10.7523 55.9355 12.9575 53.7363L21.4018 45.3226C23.6069 43.1233 27.2218 43.1291 29.4241 45.3226ZM43.6282 49.1719L44.2799 49.8211C46.4851 52.0175 46.4793 55.6209 44.2799 57.8116L30.8281 71.21C28.6288 73.4007 25.0052 73.4007 22.8058 71.21L22.1541 70.5608C19.9547 68.3702 19.949 64.7696 22.1541 62.5704L35.6059 49.1719C37.811 46.9756 41.4202 46.9727 43.6282 49.1719V49.1719ZM49.1266 61.6924L49.7784 62.3416C51.9835 64.538 51.9806 68.1385 49.7784 70.3321L40.5559 79.5179C38.3537 81.7114 34.7359 81.7114 32.5337 79.5179L31.8819 78.8687C29.6796 76.6752 29.6768 73.0775 31.8819 70.8783L41.1043 61.6924C43.3095 59.496 46.9186 59.496 49.1266 61.6924ZM55.0558 73.6381L55.7075 74.2872C57.9098 76.4808 57.904 80.087 55.7075 82.2777L50.0454 87.9173C47.8489 90.1051 44.2225 90.108 42.0231 87.9173L41.3714 87.2681C39.172 85.0775 39.1662 81.4741 41.3714 79.2777L47.0335 73.6381C49.2386 71.4417 52.8506 71.4445 55.0558 73.6381V73.6381Z" stroke="black" stroke-width="2" stroke-miterlimit="22.93"/>
<circle cx="10.1914" cy="13.5735" r="2" fill="#01A0DE"/>
</svg>
